<svg version="1.1" xmlns="http://www.w3.org/2000/svg" xmlns:xlink="http://www.w3.org/1999/xlink" width="1280" height="1924" viewBox="0 0 1280 1924"><path stroke="none" fill="000000" fill-rule="nonzero" d="M0.0,1629.1591298249193L0.0,1334.3182596498386L5.279232964515066,1333.136819082857C8.182811094998353,1332.487026771017 16.170311094998354,1331.5390004228402 23.029232964515067,1331.030093864686C36.27123372247139,1330.0475865323374 39.672066327136356,1329.2852812978983 55.5,1323.7516892635751L65.5,1320.255596754791L76.0,1319.6091222161285C87.37771194839073,1318.908607827284 93.42713233549553,1317.8168042403358 102.0605041426341,1314.9057043546L107.62100828526822,1313.0307494313251L119.0605041426341,1313.9128482440406C125.35222686418535,1314.3980025910341 131.7667948475285,1315.291083968986 133.31509966117443,1315.8974735283782C134.86340447482036,1316.5038630877702 138.54934682735163,1317.0 141.50608266679947,1317.0C144.46281850624732,1317.0 147.16008130618755,1317.45 147.5,1318.0C148.42572850488165,1319.497860185253 155.32515230511214,1319.2053869752092 160.49852897182188,1317.4489798562438C165.82441932111442,1315.6407929935856 175.38449139216118,1310.2099486337906 182.5,1304.9504794314983L187.5,1301.2547006107839L196.0,1298.6046407054666C205.84865425649306,1295.5341084976474 217.00620921078578,1293.9864856556867 221.68567498930844,1295.0418765078018C223.4792327743443,1295.4463894519406 226.34321046340867,1296.952449805742 228.05006985389596,1298.388677294027C229.75692924438326,1299.8249047823122 232.0036570688798,1301.0 233.0427983527771,1301.0C234.08193963667443,1301.0 236.40991325980306,1301.6283536966635 238.21607307084068,1302.396341548141C243.6545690221274,1304.7088162225157 255.0014003451151,1306.3990866975303 263.67107252057616,1306.188222539994L271.8421450411523,1305.989485345744L274.67107252057616,1307.0911779102444C280.0108267031502,1309.1706824298865 300.502255336634,1314.047300231969 306.5,1314.6659310982054L312.5,1315.2847945886922L317.5,1317.776920562631C320.25,1319.1475898482975 324.525,1321.6677099312228 327.0,1323.3771874135764C329.475,1325.08666489593 334.8696660350185,1328.2280251908728 338.9881467444855,1330.357988069005L346.476293488971,1334.2306478474268L351.80223690444734,1333.6809619967617L357.1281803199236,1333.1312761460963L363.8140901599618,1334.5882447858344C378.0224385207431,1337.6844752883999 381.64615215095284,1338.1786361662216 385.8919373643731,1337.598970651144C388.30750291477835,1337.2691800520925 391.9519018725155,1337.4485044461617 393.9906017149002,1337.997469304631L397.69732870105406,1338.9955872291214L405.59866435052703,1336.9826766864635L413.5,1334.9697661438054L427.2877977041857,1327.9848830719027L441.07559540837144,1321.0L445.10353915827477,1321.0C447.31890822072165,1321.0 450.0043862394437,1320.5328363143767 451.0712680887682,1319.9618584763925C452.13814993809274,1319.3908806384084 455.8668358158355,1318.6570398649155 459.3572367059743,1318.331101201964L465.70342014259023,1317.7384854511429L467.1629222240954,1319.822216561062C469.3155063851199,1322.8954609502857 473.4382092909929,1324.1201224323443 483.5,1324.6751953806224L492.5,1325.1716931392207L495.4944052466556,1327.2964805862857C497.14132813231623,1328.4651136821715 500.51632813231623,1329.7336921723906 502.9944052466556,1330.115543897884C505.472482360995,1330.4973956233773 509.2226546208118,1331.1421941951216 511.32812137958183,1331.5484296128716L515.1562427591637,1332.287039463326L519.6556687812056,1327.143519731663C522.1303530933285,1324.3145838792484 524.7157553420365,1322.0 525.4010071116677,1322.0C526.0862588812988,1322.0 530.8888625505681,1325.1763120687403 536.073459710044,1329.0584712638674L545.5,1336.1169425277346L550.1618599332571,1335.535720677381C552.7258828965486,1335.2160486596867 557.7785021445694,1333.6147365909464 561.3899027066368,1331.9772494135138C565.0013032687043,1330.3397622360812 569.0262552682161,1329.0 570.33424048333,1329.0C572.6086683969023,1329.0 579.4700073529362,1324.4822601306273 585.185190747226,1319.2216272166133L587.870381494452,1316.75L590.5086162338155,1316.75L593.1468509731789,1316.7500000000002L596.3710327297379,1319.8750000000002C600.4640514568782,1323.84210994853 602.6981746573008,1323.8029858342138 609.2305826037568,1319.6498027059426C612.1287621716906,1317.8071941942112 619.7907939470902,1313.725370489694 626.2573198824227,1310.5790833625713C632.7238458177552,1307.4327962354487 639.3544606150125,1303.7311763950265 640.9920194318834,1302.3532614949668C642.6295782487543,1300.9753465949068 649.4887843016642,1297.2678021571576 656.2346995494607,1294.114273855524C670.0570149488201,1287.652724724704 675.6296832345971,1284.6789039489204 687.3458327012643,1277.5120055380037L695.5,1272.5240110760074L704.9032790691506,1272.807147341872L714.3065581383012,1273.0902836077366L719.2614326176529,1277.5451418038683L724.2163070970046,1282.0L727.0491365541272,1282.0C728.6071927555447,1282.0 730.1360374679064,1282.4110962524414 730.4465692482643,1282.9135472276475L731.0111724852787,1283.827094455295L737.2555862426393,1283.3085326461696C740.6900138091877,1283.0233236511506 747.6490643372128,1282.8721548891356 752.7201429715842,1282.9726020639139L761.9402859431683,1283.1552332907836L764.1926492149894,1281.5776166453918C767.2664136876994,1279.4246682037133 767.6452622073798,1279.5198398530886 771.3009827998831,1283.363322003707L774.5,1286.726644007414L779.1489114991314,1287.9649800288094L783.7978229982626,1289.2033160502049L787.1489114991314,1288.5150232465421C788.992010174609,1288.1364622045273 792.975,1286.5738295745077 796.0,1285.0425062909428C799.025,1283.511183007378 804.425,1281.5888977890058 808.0,1280.7707613612274L814.5,1279.2832405834483L822.0,1279.6373203119747C826.125,1279.8320641626642 831.5926793307675,1280.1036415825197 834.1503985128165,1280.2408256894314L838.8007970256332,1280.490251338362L840.6503985128165,1278.8678323541553L842.5,1277.245413369949L847.532748866016,1276.7903743393417L852.5654977320321,1276.3353353087346L858.9027925283613,1271.4176676543673L865.2400873246903,1266.5L871.7296265877176,1266.7516793451791L878.2191658507447,1267.0033586903583L882.3595829253724,1268.8618589125676L886.5,1270.720359134777L889.4526912642871,1274.708234454643C892.2851653515662,1278.5337456563868 894.2789050387531,1280.0999773685178 901.9171506569817,1284.5C905.2138483293052,1286.39906754671 912.9948382019262,1296.282722700656 912.9983517210076,1298.5756859732908C912.9992582744535,1299.1673132586006 914.0125,1300.5759949804078 915.25,1301.7060897995289L917.5,1303.7608076524764L922.51816412918,1304.2113347633258L927.5363282583601,1304.6618618741752L932.9340360809873,1307.3729762450253C935.9027753834323,1308.864089148993 939.8477598280448,1311.4151702273036 941.7006681801263,1313.0420453079378C945.3782612353541,1316.271014777228 947.6172879186597,1316.6294511269798 952.6782180970625,1314.799395030826L955.9984321241644,1313.5987900616522L964.167204138666,1317.549395030826C968.6600287466418,1319.7222277638718 974.8478815187049,1323.4436305303523 977.9179880765837,1325.8191789563384L983.5,1330.138357912677L988.0,1329.4827203225127C990.475,1329.122119647922 993.85,1328.234190615967 995.5,1327.5095446959456C1004.495529271231,1323.5588940384725 1012.2883400693568,1322.039493049413 1013.4999999999999,1324.0000000000002C1013.8399186938123,1324.5500000000002 1014.9372684026752,1325.0000000000002 1015.938554908584,1325.0L1017.7590758284183,1324.9999999999998L1021.4592011304574,1320.4844846960789C1023.4942700465788,1318.0009512789225 1026.5859779851846,1315.2354176613849 1028.3296632162483,1314.3388544348845C1030.0733484473117,1313.4422912083842 1033.0650297465359,1311.4242730951485 1034.9778438811907,1309.8543697388054C1036.8906580158455,1308.2844663824626 1039.329272445271,1307.0 1040.3969870576916,1307.0C1041.4647016701124,1307.0000000000002 1044.740496238631,1305.6442766747273 1047.6765305432887,1303.9872814993937L1053.0147747335752,1300.9745629987872L1058.440971676674,1300.5128281774682L1063.8671686197729,1300.0510933561495L1067.545892594791,1305.0625182243527L1071.224616569809,1310.073943092556L1075.0724702176078,1312.036971546278C1077.1887897238971,1313.1166371958252 1079.5787246188236,1314.0 1080.3834366507776,1314.0C1081.188148682732,1313.9999999999998 1083.1185758130155,1315.0631848467633 1084.6732747180745,1316.362632992808C1086.2279736231335,1317.6620811388523 1090.0993925856762,1320.1867492231752 1093.2764279681692,1321.973006513526L1099.0528559363386,1325.2207470414357L1102.0070167225624,1323.9970935783513C1103.6318051549856,1323.3240841736547 1106.0415721016086,1323.0446018968337 1107.3620543817246,1323.3760218520822C1108.682536661841,1323.7074418073307 1111.1293502955423,1323.5022673459127 1112.799418012172,1322.9200786044864L1115.8359047696808,1321.861553620075L1122.732946228745,1325.4307768100375L1129.6299876878093,1329.0L1136.0649938439046,1328.9994957759513L1142.5,1328.998991551903L1147.9016857821107,1326.9459354788642C1150.8726129622714,1325.8167546386926 1161.9561864097877,1320.6419815395145 1172.5318489988135,1315.4464397029126C1183.1075115878396,1310.2508978663107 1192.161723239368,1306.0 1192.6523193355438,1306.0C1193.1429154317195,1306.0 1195.1093419842032,1304.7375189042755 1197.0221561188407,1303.1944864539455C1198.9349702534782,1301.6514540036153 1203.034866280696,1299.16910830792 1206.1330361793243,1297.6781626857332C1209.231206077953,1296.1872170635463 1213.4449901004803,1293.6331164590556 1215.4970006738295,1292.0023835646423C1220.4576108832875,1288.0601864093314 1228.5267220185392,1284.320838935196 1235.676235733264,1282.6510225058228C1238.879306079969,1281.9029241451817 1243.9325827011467,1280.057309607812 1246.9057393358814,1278.5496568672231L1252.3114786717629,1275.8084700661525L1257.40736722464,1276.4451593083336L1262.503255777517,1277.0818485505147L1267.0016278887585,1272.4607189683388C1271.6568144820203,1267.678495545134 1275.7670516741002,1265.0 1278.450340073116,1265.0L1280.0,1265.0L1280.0,1594.5L1280.0,1924.0L640.0,1924.0L0.0,1924.0L0.0,1629.1591298249193"/></svg>