<svg version="1.1" xmlns="http://www.w3.org/2000/svg" xmlns:xlink="http://www.w3.org/1999/xlink" width="518" height="518" viewBox="0 0 518 518"><path stroke="none" fill="#000000" fill-rule="nonzero" d="M513.0,472.7177128980445L508.5,470.5767001093391L491.5,470.02023653324835L474.5,469.46377295715763L468.0,466.29296952429087C464.425,464.54902763621413 459.1007554652614,461.0696787208537 456.1683454783586,458.56108304571205L450.83669095671723,454.0L445.3862268474623,454.0C442.38847158737207,454.0 438.35152798355193,453.33806445459993 436.41524106119533,452.5290321213331L432.8947193841833,451.05806424266626L427.19735969209165,451.2629139620145L421.5,451.4677636813628L414.5557354176913,447.9838818406814L407.61147083538265,444.5L406.3796957540909,440.1431783917809C405.7022194593804,437.74692650726035 404.13619720940005,434.7094265072604 402.89964630969007,433.3931783917809L400.65137194658104,431.0L392.57568597329055,431.0055769344027C388.1340586879807,431.0086442483242 382.925,431.4410291372905 381.0,431.9664322432168C379.075,432.491835349143 371.65,433.5854558967656 364.5,434.39670012682257L351.5,435.8716896360169L347.40640073489465,435.09871887180344C345.1549211390867,434.673584951486 340.82514417908385,432.9024547833822 337.7846741571105,431.162874053795C334.7442041351371,429.42329332420775 331.31465649575415,428.0 330.1634571807038,428.0L328.0703675169759,428.0L326.9493646519197,425.9053869866618C325.72810859721574,423.6234491749571 317.5262593172064,419.5947344121496 312.0885953237032,418.6058379782222L308.6771906474064,417.9854381294813L310.9385003422717,419.9466616296464L313.19981003713707,421.90788512981163L309.8499050185685,423.95020450446805C305.7747631635195,426.434675293612 308.11606331838925,426.4027889746631 281.295456941594,424.3390893883212L259.090913883188,422.63057073364274L239.795456941594,424.44436821694114C229.1829556237173,425.44195683275524 217.125,427.1448720038699 213.0,428.22862415275154C208.875,429.3123763016332 202.6153788177772,430.8374870018739 199.08973070617157,431.6177590421753C195.56408259456592,432.3980310824767 188.58908259456592,434.56514088527643 183.58973070617157,436.4335586039525L174.5,439.8306817288181L166.5,440.8616319706117C162.1,441.4286546035982 154.0,442.38077097006163 148.5,442.9774461183083C143.0,443.5741212665549 135.35,444.76047519688706 131.5,445.61378818571313C124.42720348782079,447.1814009470549 107.36230951587919,449.4926620575666 94.5,450.62505056036014L87.5,451.2413255387976L80.0,450.09731619024546C75.875,449.4681110485418 68.70830621827253,448.01484867521566 64.0740138183834,446.86784424952066L55.64802763676681,444.78238165734797L48.574013818383406,445.8747658332086C44.683306218272534,446.475577129932 37.99017400850226,447.26363361313645 33.700386685560574,447.62600246255187L25.900773371121147,448.2848549160345L23.460102290779048,446.97864739402405L21.01943121043695,445.6724398720136L19.18097493363436,447.33621993600684C17.02273508084593,449.2894001588349 13.46395290414901,449.42784349577533 5.666781446418213,447.8619475443669L0.0,446.7238950887338L0.0,223.3619475443669L0.0,0.0L259.0,0.0L518.0,0.0L518.0,237.5C518.0,368.125 517.8875,474.96821327951875 517.75,474.929362843375C517.6125,474.89051240723126 515.475,473.89526993183256 513.0,472.7177128980445"/></svg>