<svg version="1.1" xmlns="http://www.w3.org/2000/svg" xmlns:xlink="http://www.w3.org/1999/xlink" width="518" height="518" viewBox="0 0 518 518"><path stroke="none" fill="#000000" fill-rule="nonzero" d="M0.0,259.0L0.0,0.0L259.0,0.0L518.0,0.0L518.0,8.5L518.0,17.0L516.1407306468275,16.999999999999943C511.36658514456394,16.999999999999797 499.46271132373033,30.39097141834879 490.80571996725223,45.5C485.2515528292708,55.19367607976562 484.32084164642913,58.037047928532516 483.0869220782273,69.08133546538508L482.12817505930826,77.66267093077016L483.0713845447398,90.96515104508154C483.59014976172705,98.2815151079528 484.7380225327557,107.01991414852951 485.6222129248033,110.38381557969646L487.22983181943545,116.5L486.6820758904164,127.5C486.380810129456,133.55 484.979097970083,145.01363008179598 483.56715998069876,152.97473351510217L481.00000000000006,167.44946703020435L480.9673541498694,179.47473351510217L480.9347082997387,191.5L478.9039896659874,197.0C477.78709441742416,200.025 475.5553204180119,206.55 473.9444918895157,211.5C470.0163821256504,223.57089580744216 469.659990378174,224.13479578792982 463.6853663100594,227.73247663572414C460.8334148395267,229.44980831507314 456.025,233.06121778804606 453.0,235.7578310201084C449.975,238.45444425217073 444.8,242.36267832522645 441.5,244.44279562689889C438.2,246.52291292857132 431.6235815812501,251.99617259452899 426.8857368472224,256.6055948845826L418.2714736944448,264.9863626846801L412.3857368472224,267.5284261568413C409.1485815812501,268.9265610665299 404.925,270.96369920324395 403.0,272.0553997939835C396.4329397534571,275.77969254752804 391.5034943926412,277.95806265427996 387.2353328134732,279.02196037603215L382.9706656269463,280.0849870725664L377.7353328134732,284.5311462666554C365.9330951706736,294.5543156191965 344.2001415764817,309.76069939729047 337.79327010796857,312.4783064055754C327.02886481398593,317.0442514866832 324.39913365443846,318.6663690360947 317.6729720320871,324.88926654870033C308.3229171116157,333.5397327096648 292.81086842001883,344.28854677980667 283.6568537049101,348.46016543872514C279.654659215318,350.2840241202987 274.22470920791835,353.6417810592729 271.59029813291085,355.92184752533456C268.95588705790334,358.2019139913962 264.48285635640445,361.23101476631047 261.6502299073577,362.65318258069954C258.81760345831094,364.0753503950886 253.96908240490555,366.7892169271811 250.8757386775679,368.6839970964606L245.25147735513582,372.129051949696L237.8757386775679,373.0851181198756L230.5,374.0411842900552L221.5,378.50345141975254C216.55,380.9576983410861 210.6139820617677,383.43364583001295 208.30884902615043,384.00555695070113L204.11769805230088,385.04539535195244L195.9833274653397,392.6976275983244L187.84895687837852,400.3498598446964L184.34779949039984,407.3022298456815C182.42216292701156,411.12603334622327 178.84391914107576,417.2664165901056 176.3961466327647,420.9475259431978L171.94565116310824,427.640452039729L163.34032532087178,434.5702260198645C158.60739610764173,438.381601708939 152.83511136903593,442.9193484425522 150.51302590174774,444.654107650116C148.19094043445955,446.3888668576797 144.7307958754082,449.7638668576797 142.82381577052251,452.154107650116C140.9168356656368,454.5443484425522 136.3152734198088,460.325 132.5981218909047,465.0L125.83966456562455,473.5L119.52985199195328,486.0C116.05945507643408,492.875 111.66024014178286,500.8115620621287 109.7538188038395,503.6368045825082C107.84739746589611,506.4620471028877 105.67464675443243,510.8495471028877 104.92548388947576,513.3868045825081L103.56336958955454,518.0L51.78168479477727,518.0L0.0,518.0L0.0,259.0"/></svg>