<svg version="1.1" xmlns="http://www.w3.org/2000/svg" xmlns:xlink="http://www.w3.org/1999/xlink" width="518" height="518" viewBox="0 0 518 518"><path stroke="none" fill="#000000" fill-rule="nonzero" d="M430.0,424.34743314205855C427.525,424.1867944327573 413.125,423.586011063892 398.0,423.0123589890245C382.875,422.43870691415697 367.575,421.54035752725963 364.0,421.0160270181414C360.425,420.4916965090232 343.55,419.36387255333693 326.5,418.50975156106074C285.88862101642894,416.47532157190227 250.89395723815068,413.6501173946616 228.0,410.55760739355657C217.825,409.18317094581096 200.05,407.1664122197297 188.5,406.0759213355982C139.50670588231407,401.4502295071212 71.3491800708274,393.088287000066 57.5,390.0041162725156C55.3,389.5141828926396 42.281352304871525,387.4852332024043 28.569671788603387,385.4953391831037C14.857991272335248,383.5054451638031 2.820491272335262,381.4391136029349 1.819671788603415,380.90349127006334L5.684341886080802e-14,379.929632483024L2.842170943040401e-14,189.964816241512L0.0,0.0L259.0,0.0L518.0,0.0L518.0,211.84219264186302L518.0,423.68438528372604L499.8396929701158,424.342192641863C482.56710514021887,424.96784480456466 439.6084991218017,424.97106825205805 430.0,424.34743314205855"/></svg>