<svg version="1.1" xmlns="http://www.w3.org/2000/svg" xmlns:xlink="http://www.w3.org/1999/xlink" width="518" height="518" viewBox="0 0 518 518"><path stroke="none" fill="#000000" fill-rule="nonzero" d="M237.0,421.8622913292952L222.5,421.22458265859046L213.97122115050186,418.68077753733655C209.28039278327788,417.2816847206469 198.4803927832779,413.03317494063907 189.97122115050186,409.23964469287466C159.59585631125503,395.6978018111642 155.9570063552382,394.40124794384326 123.0,385.3772164995079C103.82591752429559,380.12711819531114 98.1448071574205,379.03619661610315 89.88027187952531,379.0173636237747L82.26054375905062,379.0L75.95640266510689,376.98607234880194C72.48912506343784,375.87841214064304 68.26800271765146,373.92271442025344 66.57613078558158,372.6400774146029C62.36910162817024,369.4506567623288 39.76224316653892,355.66278668957887 18.02055465936793,343.0261451616099L0.0,332.55229032321984L0.0,166.27614516160992L0.0,0.0L259.0,0.0L518.0,0.0L518.0,138.81095031581884L518.0,277.6219006316377L513.0347690171396,278.8944510994168C510.3038919765665,279.5943538566953 506.3663919765665,281.3836888782 504.28476901713964,282.87075114720494C502.20314605771284,284.3578134162099 498.7,286.6105466515649 496.5,287.87682500354936C494.3,289.14310335553387 489.8,292.1830132227629 486.5,294.6321802640584C483.2,297.08134730535386 477.125,301.33555565259775 473.0,304.085976591267C468.875,306.8363975299362 463.41118707181334,310.529724999084 460.8581934929186,312.29337096715096C451.38216589825436,318.8395518893356 437.56926081626483,327.5911226348495 432.12204474811745,330.5C429.03222507399784,332.15 425.9026464985561,334.30546700734897 425.1674256915803,335.28992668299765C422.5315990681766,338.81929500081736 419.4303957062201,341.27958565659947 415.21271691741686,343.18733750053764C412.8547112219962,344.25391699573237 409.4797112219962,346.349949530564 407.71271691741686,347.84518757794115C402.362608509502,352.37247192083646 397.885839664321,355.4590227715394 389.5,360.40211844462567C365.6543466128738,374.45811650780377 358.6721998524959,379.4634304054893 336.62979544724374,398.30335121777694C321.55651689057976,411.18667234591277 309.0602039504558,419.4545734049827 301.5,421.54618087280096C297.87683967479916,422.5485650998608 257.14341881082214,422.7481970419365 237.0,421.8622913292952"/></svg>