<svg version="1.1" xmlns="http://www.w3.org/2000/svg" xmlns:xlink="http://www.w3.org/1999/xlink" width="518" height="518" viewBox="0 0 518 518"><path stroke="none" fill="#000000" fill-rule="nonzero" d="M0.0,241.5794552658191L0.0,0.0L259.0,0.0L518.0,0.0L518.0,241.0L518.0,482.0L515.7586594204345,482.0C513.4392694477783,481.99999999999994 502.9999999999999,475.39398357725884 502.9999999999999,473.92626322319063C502.99999999999983,473.46966319685254 500.98780691576485,471.7116561360039 498.528459812811,470.0195808657493C496.06911270985717,468.3275055954946 492.67289683270906,464.93147219948736 490.9813134191486,462.4728399857331C487.05544800823395,456.7667902049411 484.443953437831,455.48453882437667 474.0,454.13496602563487L465.5,453.0365918460113L459.1739948338493,453.95308648707964C451.24916518511753,455.10121452581507 449.16607208464285,456.47192780140193 444.3554260457879,463.70397518157154L440.5,469.5L433.1133600211213,473.25L425.7267200422426,477.0L422.1133600211213,476.9962619395618C417.46181637921256,476.99144986681995 413.3277786702001,474.4242478281789 408.4252828444203,468.49608315394136C406.2663772799891,465.8855051632829 403.3613115652146,462.5201189107936 401.96958125603237,461.01744703729844L399.4391625120647,458.2853163582163L393.9356187714806,457.5976939628225L388.43207503089656,456.91007156742876L384.4660375154483,458.2092504857057L380.5,459.50842940398263L378.75,463.2542147019914C377.7875,465.31439661589616 376.21250000000003,468.6875000000001 375.25,470.75000000000006L373.5,474.5L369.91518439793344,474.80051755922887L366.33036879586695,475.10103511845773L360.9346992333325,472.97426084211344C357.96708097393855,471.80453499012407 351.5229729834262,470.3991055694704 346.61445925441615,469.851084351772L337.68988883803434,468.8546821377748L332.2041759390676,465.92734106888736C329.18703384463595,464.3173034809993 325.3621325612015,463.0 323.70439530921334,463.0L320.69032757832576,463.0L316.70524454467784,458.8108075577055C314.5134488761714,456.50675171444357 311.82138423118647,452.5897799983827 310.7228786669334,450.10642596645926L308.72559582283696,445.5912368175074L308.22940540975696,436.88880180159583C307.95650068256293,432.1024625428444 307.4557416224246,427.75630276158245 307.11660749833845,427.2306689543469C306.7774733742523,426.70503514711146 304.74919580159514,425.38335256796046 302.60932400354477,424.2935965562335L298.71864800708954,422.3122219894574L298.60636046652655,412.7578238852957L298.4940729259635,403.203425781134L296.9195590765439,401.351712890567C294.79708863286305,398.85557360169366 293.00000000000006,392.23079030504795 293.00000000000006,386.9026595574901L293.00000000000006,382.537358233764L286.4443441856224,376.2655785229572C282.8387334877147,372.8160996820134 278.4915821873249,369.27132712612087 276.78400796253396,368.38830617652934L273.67932755382316,366.7828135409083L268.0896637769116,367.27775832027146C258.92630268695217,368.0891412430921 244.90169712281812,370.94989525048027 240.46412163001924,372.91284588416704C235.20603015475623,375.2387497499377 232.54243678105976,378.99262361902214 230.40925275601563,387.08344335446003L228.71749634818167,393.5L226.38523925322812,395.5C225.10249785100365,396.6 222.6435220968943,398.586096749444 220.92084868854067,399.9135483320978C217.42941503923274,402.6039649258814 214.5451088746289,408.56381409854845 212.50758638918154,417.297893645229C211.76145151773798,420.49628844395403 210.64834046489753,423.7187975307531 210.0340062717583,424.4590249492269C209.41967207861907,425.1992523677007 205.78822039811402,426.5716486227404 201.96411364841376,427.50879440487057L195.01119228532238,429.2126958269255L192.41928770650128,432.35634791346274C190.99374018814964,434.08535656105823 187.15711491431418,440.1062123012219 183.89345376464465,445.73602733604866L177.95952440160914,455.9720546720974L175.72976220080457,456.45571323084266C174.50339299036204,456.72172543815253 170.35,456.86081846083994 166.5,456.76480883681467C162.65,456.6687992127894 155.68875796196218,457.1321957384926 151.03057324880484,457.79457889393296L142.5611464976097,458.9989119038245L134.03057324880484,464.24945595191224L125.5,469.5L116.92038885884071,470.0364161908757L108.34077771768143,470.5728323817513L103.33284151103521,473.7864161908757L98.32490530438898,477.0L94.72755231336902,477.0C89.65942013258615,477.0 86.06080571397804,475.42566920457665 81.907764367618,471.39156725170926L78.31552873523601,467.9022100382414L72.907764367618,466.46297389450723C69.9334939654281,465.6713940154535 65.4160766925143,465.01839675684914 62.86905931669844,465.01186887538654L58.23811863339687,465.0L51.59623040243122,467.5C43.260852838741606,470.63742766884747 39.4517876400079,470.6448879287385 33.342286477328685,467.53575133493723L28.5,465.0715026698744L25.062501997637845,465.81396365294904L21.62500399527569,466.55642463602373L16.987640644666612,472.51588296138755C12.083007160655843,478.81880913716515 8.564765422324104,481.37073672734425 3.25,482.4803671533447L0.0,483.1589105316382L0.0,241.5794552658191"/></svg>