<svg version="1.1" xmlns="http://www.w3.org/2000/svg" xmlns:xlink="http://www.w3.org/1999/xlink" width="1280" height="853" viewBox="0 0 1280 853"><path stroke="none" fill="000000" fill-rule="nonzero" d="M3.776509700229489e-15,780.5190520282149L7.553019400458977e-15,708.0381040564299L2.250000000000004,707.5807358188104C3.4875000000000016,707.3291832881197 7.9990389879132415,706.9044388201755 12.275642195362758,706.6368592233789L20.051284390725517,706.1503508655668L22.213700688340197,709.0751754327835C24.809825799677533,712.5866225642092 26.131362570993012,712.7020862284776 30.104522018440235,709.7646024427895L33.12805902194775,707.529204885579L37.185896208993626,709.864599516411L41.2437333960395,712.1999941472429L46.395282096909895,711.5563506286935L51.54683079778029,710.9127071101442L55.241296767994314,712.4563535550722C57.27325305161203,713.3053590997824 59.86433928046365,714.0 60.99926616544238,714.0L63.06276959267642,714.0L63.62512000562764,712.25C65.38470021280038,706.7742942982966 66.45896866358768,704.9292920484851 68.7689457770983,703.4157369123643L71.33563520545776,701.733977407303L76.11630051097819,702.8374872726422L80.89696581649862,703.9409971379813L84.1984829082493,702.6039231361174C86.0143173087122,701.8685324350923 89.65119710523624,700.9885393484285 92.28043801163608,700.6483829435311L97.06087602327217,700.0299167528087L98.0056871645724,702.5149583764044C98.52533329228751,703.8817312693819 99.20898315414914,705.0 99.52490907982045,705.0C100.45113249595732,705.0 106.36703411257291,701.8691060045719 108.0,700.5146969993261C108.825,699.830428308883 111.21310271488213,699.0088303896076 113.30689492196026,698.6889238453807L117.11378984392054,698.1072755831498L120.55072183185675,695.3036377915748C122.44103442522167,693.7616370062087 125.5518077208318,691.2300793572388 127.46355137765704,689.6779541271973C129.3752950344823,688.1258288971558 132.78568124671713,683.5113583935988 135.0421874048456,679.4235752304041L139.14492587417013,671.9912422064136L142.32246293708505,669.6031129300804C147.82552438329455,665.4671982612845 164.0356618393228,657.8918277282877 169.3748700180185,656.960900117053C172.19369150810834,656.4694192329142 175.4561271283645,655.789414068193 176.6247269519211,655.4497775287837L178.74945390384224,654.8322565480393L176.90737280205178,660.1661282740197C175.89422819606705,663.0997577233088 175.05060106770256,666.6845588235294 175.03264585013068,668.1323529411765L175.0,670.7647058823529L179.0,674.7647058823529L183.0,678.7647058823529L183.00000000000003,680.9014049693911L183.00000000000006,683.0381040564293L185.75000000000003,682.3787121896437C187.26250000000002,682.0160466629115 189.73098086378766,681.0992883607644 191.23551303063928,680.3414715182055L193.97102606127856,678.963622713553L194.57580711337548,676.553983070753C194.90843669202877,675.2286812672131 194.88625412702487,673.2169789908567 194.52651252447788,672.0835335677388L193.8724368834834,670.0227237075244L196.5834210436364,667.5102683824614C198.07446233172053,666.1284179536767 201.14066403293677,664.5116757498579 203.3972026018947,663.9175079295305C205.6537411708526,663.3233401092033 208.4898694511378,662.2032864354744 209.69970989141729,661.4284997656886L211.89941978283457,660.0197967297144L218.19970989141729,660.080176971295C221.66486945113778,660.1133861041643 226.43421577675767,659.960856085362 228.7982572816837,659.7412213739565L233.0965145633674,659.3418855350374L238.7982572816837,653.8130676405187L244.5,648.2842497460001L249.0,646.4946385728067C253.17301396077158,644.8350669261201 257.69688875362624,643.7103991270068 265.714959136252,642.339179554858C267.48318666119064,642.036784081321 269.4507867831396,641.1617614423036 270.08740385169415,640.3946848014862L271.2448894308843,639.0L269.61062713868444,639.0L267.9763648464846,639.0L268.63253567301206,634.75C269.29912071710095,630.4325474055731 272.3456836860817,625.0 274.100318414694,625.0C274.6305899110737,625.0 275.44484797454726,626.0125 275.90978077796854,627.25L276.7551131478255,629.5L274.3775565739128,633.7854829768587C271.52950812371125,638.9190151436752 271.52028548801627,639.0 273.78372220768415,639.0C276.4785778871311,638.9999999999998 285.8956188062473,632.74587916002 291.2827550800415,627.3784017605423L296.06551016008297,622.6131000316369L295.43047235291726,621.0565500158184C295.08120155897615,620.2004475071183 294.34744045877176,618.2625 293.7998921302409,616.75L292.8043497147302,614.0L289.70600807369203,614.0L286.60766643265384,614.0L289.9266861912665,610.5756406542791L293.2457059498792,607.1512813085582L305.87285297493963,600.9723169540246C312.81778383872285,597.573886559031 322.00638193297414,593.6373016261495 326.29195985105366,592.2243504365098L334.0839197021074,589.6553482735286L335.6244957066084,591.1959242780365L337.1650717111094,592.7365002825443L330.83253585555474,597.1490595167659L324.5,601.5616187509875L323.4741867599642,604.7043451225591C322.9099894779445,606.4328446269235 321.6002483395498,608.7842392695632 320.56365089686494,609.9296665506471C317.3002622431735,613.5356704233136 319.6690532906278,613.4060114017054 328.4381566645878,609.4986446947566C337.6246873143675,605.4052793320099 341.2242569596419,602.7479792055472 340.42035978467993,600.6530567483965C339.76782353950085,598.9525745515346 341.3537887029286,597.7675299040694 347.1416304576229,595.6308746609157C349.69452720931554,594.6884404236094 354.33321335686185,591.6859523460055 357.44982189661465,588.9586789329068C360.56643043636745,586.231405519808 363.45833549617055,584.0 363.8762775850659,584.0C364.29421967396127,584.0 371.355533526415,579.2709868821237 379.56808614607417,573.4910819602748C393.0385077874015,564.0107461925974 407.0270068562956,556.0 410.1113061948323,556.0C410.7538209291986,556.0 411.83855977157816,556.7645395509426 412.5218369556759,557.6989767798725L413.76415910858077,559.3979535597449L417.8086635896823,558.0631467098904C420.03314105428814,557.3290029424704 422.87528907716205,556.9956305075771 424.1245480849576,557.322319076794C425.3738070927531,557.6490076460108 426.8927604545222,557.5039640614535 427.5,557.0C428.90735608045037,555.8319981933045 433.0,556.8637643116119 433.0,558.38656422651C433.0,559.9003611065024 417.9303975605583,572.6150814739025 405.3434595251961,581.7212991592945C399.8536143989079,585.6930136969065 394.5261232010224,589.8661466256751 393.5045901965617,590.9949278898914L391.6472574611785,593.0472574611938L392.77937768890956,594.1793776889098L393.9114979166406,595.3114979166257L399.2057489583203,591.2879806038502C406.48872733690126,585.7530731421341 409.9606101570429,583.6272768237403 410.6277476279404,584.2944142946087C410.93867971348186,584.6053463801367 407.2121359867349,587.4788026533838 402.34653934628057,590.6798726796025L393.5,596.5L393.1804490469269,598.75L392.8608980938538,601.0L395.32125786541354,601.0C396.6744557397714,601.0 399.9682536686543,599.4400553257173 402.6408088184867,597.5334562793716C414.2555219129644,589.2475277697583 450.7711229508234,564.1928587963868 452.86884286538157,563.070193168258C455.9395083446016,561.4268228760291 456.78193109760304,562.5161985333298 454.95604225121207,565.7692468141332L453.465352938421,568.4250953975627L450.2943008896674,569.0736448003556C448.55022226285286,569.4303469718916 442.7080178517081,572.8761497072433 437.31162442045684,576.7309842122479C428.5171741270476,583.0131708013978 418.8191679199857,589.4528551859044 406.2143376984844,597.3802504045285L401.92867539696886,600.0755773736867L402.58561788586104,601.138532649368L403.2425603747532,602.2014879250494L406.15024880103084,601.6199502397939C407.7494774354835,601.3001045129033 413.9252119894679,598.3127385719268 419.87410336544065,594.981359259846C425.8229947414133,591.6499799477652 432.2224588652689,588.5201443297411 434.0951347517864,588.0261689975702C435.9678106383039,587.5321936653992 439.4018618623783,586.6347445433286 441.72635969417405,586.0318376151911L445.9527193883481,584.9356432003955L450.5761297868165,580.9341101411108C453.1190055059742,578.733266958504 457.5171436435959,575.7639387160082 460.34977009264253,574.3356029355643C463.1823965416891,572.9072671551205 467.59820276761195,570.1099373117097 470.16267281691546,568.1193143946514C472.727142866219,566.1286914775931 477.410741155278,562.7 480.5706690148244,560.5C483.7305968743708,558.3 487.70739410675884,555.3402388924417 489.4079961979089,553.9227530943149C497.464428399225,547.207555995378 505.5488653825706,543.0006424546582 510.3992232652432,542.999509142038L512.5,542.999018284076L516.9065005621878,537.8822324151267C519.3300758713913,535.0680001872047 523.9356499548704,530.8347623744237 527.1411096365862,528.4750372756137C530.346569318302,526.1153121768035 534.3246838669544,522.829162286892 535.981364189147,521.1724819646993C537.6380445113397,519.5158016425065 540.4100104918621,517.8492202773687 542.1412885903079,517.4689678199486C545.2398753349468,516.7884040068695 548.0870670169069,514.4873812033163 557.0158900295262,505.44771989264257C559.4996295457656,502.9331483775606 563.769167216612,499.66622305463704 566.5037515202957,498.1878858417013C569.2383358239795,496.70954862876556 572.0342134689917,494.375 572.716812953656,493.0C573.3994124383204,491.625 575.5073501071,488.7 577.4011188842775,486.5L580.8443348427819,482.5L581.9375980263168,483.5654306049258L583.0308612098517,484.63086120985156L581.3840214553159,488.0654306049258C578.4268977292502,494.23266492084537 573.694994381028,501.3908086729864 568.702028567481,507.25L563.8021111854473,513.0L560.1134637488917,513.0L556.4248163123361,513.0L551.8614700940961,517.75C549.351629674064,520.3625 545.994993001289,524.3 544.4022774879293,526.5C542.8095619745696,528.7 540.267484102502,531.6930444101391 538.7532155500012,533.1512098003092L535.9999999999999,535.8024196006184L535.9999999999999,538.7790858456285C535.9999999999999,544.6482950128855 532.972231831749,549.9012954678954 523.25,560.8995891601433C520.9125,563.5438905870723 519.0,566.2016243953406 519.0,566.8056642896283C518.9999999999999,567.409704183916 517.0030188251188,569.2778777953391 514.5622640558198,570.9571612039019C512.1215092865208,572.6364446124646 508.0323683509385,576.6733888267728 505.4752841989703,579.9281483468089L500.8260402863009,585.8458929286929L495.5538003177036,588.6062643148265L490.2815603491062,591.36663570096L487.593820172061,589.2524589695631C486.1155630746862,588.089661767295 483.5664737037767,586.8440553403176 481.9291771255955,586.4844446873913L478.9522742561752,585.8306071366163L475.4189769463266,587.9153035683082L471.885679636478,590.0L468.38565987142056,590.0C466.460649000639,590.0 462.87469866558274,590.5063608917512 460.4168813490734,591.1252464261138L455.94812259178354,592.2504928522277L453.9535722195891,594.7861527575267L451.9590218473947,597.3218126628257L452.18890382619253,600.7352373931842L452.41878580499036,604.1486621235426L448.4593929024952,607.6381500275204L444.5,611.1276379314983L447.0,610.6419215535443C455.1909390017141,609.0505322639622 461.2712039723855,606.9468929251932 467.09609996011477,603.6891083725651C470.72395493817794,601.6600987676543 474.55357542520096,600.0 475.6063677090548,600.0C476.65915999290866,600.0 481.115915010857,598.4304941922856 485.51026774894,596.5122093161901C489.904620487023,594.5939244400948 494.3003325126768,593.0189244400948 495.2785166948373,593.0122093161901C496.2567008769979,593.0054941922856 499.64522949381654,591.6934827634846 502.8085802877677,590.096628363299L508.5601271858607,587.1932567265981L511.08899297308733,587.676680052599L513.617858760314,588.1601033785998L518.8667871367007,584.0110642608432C521.7536977437135,581.7290927460771 524.3607975611476,579.2233515635489 524.6603422865544,578.4427505218918C524.9598870119612,577.6621494802346 530.6713510215166,573.3620664398313 537.3524845300107,568.8870104321068C544.0336180385048,564.4119544243823 550.2875,560.061927943775 551.25,559.2202849196462L552.9999999999999,557.6900248757759L552.9999999999999,553.3290561432273L552.9999999999999,548.9680874106787L560.1866802211727,540.4840437053393C564.1393543428177,535.8178196674027 567.7598088882747,532.0 568.2321347666327,532.0C568.7044606449907,531.9999999999999 570.2450301199062,530.8458789710086 571.6556224886672,529.4352866022414L574.2203358864144,526.8705732044828L575.6101679432072,527.4039018059078C576.3745755744433,527.6972325366916 577.0,528.9135297527683 577.0,530.1067845083005L577.0,532.276338609268L573.0,536.6158262167708C570.8,539.0025444008972 569.0,541.4853923188723 568.9999999999999,542.1332660344931C568.9999999999998,542.781139750114 567.9159309736165,544.7325060084518 566.5909577191479,546.4696354974661C563.8563305380218,550.0549165601392 559.0000000000002,561.0606857096053 559.0,563.6728154758895L559.0,565.4058955309713L563.1088053726064,561.4529477654856C568.4644719307655,556.3004354817674 579.2610555618824,543.4101800767353 585.9691066628733,534.1595804989881L591.291995055313,526.8191609979764L592.2627613170641,522.1595804989881C592.7966827610273,519.5968112245447 593.3198934983951,514.8 593.4254518445482,511.5C593.5310101907013,508.2 593.9751558479986,504.71629323111455 594.4124421940978,503.7584294024768L595.2075082779145,502.0168588049536L593.4137241854341,501.328519263046L591.6199400929537,500.6401797211385L591.2266367131435,501.8200898605693C590.686597353836,503.44020793849205 588.0556106294022,503.30849391366286 587.4111579257519,501.629077088414C587.1218180608823,500.87506948704174 588.0559028398023,498.53285831696746 589.4869018789076,496.4241633771379C590.9179009180128,494.31546843730837 593.0786233134286,490.432383747522 594.2885072020538,487.7950862887239C595.4983910906791,485.1577888299258 596.9630296699384,483.0 597.5432596004077,483.0C599.0990039972966,483.00000000000006 601.192952324426,489.5468412335284 601.5069340297008,495.3926397102414C601.7633829212571,500.1672763034854 602.7281173800732,505.95246625960993 604.8600241606177,515.5C605.3512709102737,517.7 607.1856458093231,522.875 608.9364128251719,527.0C610.6871798410208,531.125 612.7321068120901,536.75 613.4806949831038,539.5L614.8417643849468,544.5L614.2976044862235,549.1147931931074L613.7534445875,553.7295863862148L614.8785949014776,554.4249675227056L616.0037452154553,555.1203486591965L616.9401894778789,552.6573135947522C618.8133061357248,547.7306434306057 620.5111957483123,548.421154051227 625.4397498254702,556.1139792384499C626.7132001408377,558.1016678195974 628.2891251411276,561.3460280208177 628.9418053816701,563.3236685744952L630.128496728111,566.9193786720905L635.3142483640555,569.7996679978638C638.166411763825,571.3838271270391 643.425,574.4066970083057 647.0,576.5171566229008C650.575,578.6276162374958 655.33888148892,581.2871258396774 657.5864033087112,582.4271779610822C659.8339251285024,583.567230082487 662.4535679856403,585.2875 663.4078318801289,586.25C666.9934542744129,589.8665693519692 668.0984327928995,587.5747339892732 665.5610907422598,581.7839269291597C664.7696906505026,579.9777671181218 663.8838589153833,577.375 663.592575775328,576.0C663.3012926352726,574.625 661.4738018012557,571.0982222710035 659.5314850330683,568.1627161577854C655.5185916318771,562.0978593312229 655.2551782957123,561.0 657.8129087952339,561.0C659.7288720621978,561.0 663.4773172006628,564.6335535192926 666.3707477167064,569.2955371045896C667.3250155129217,570.8330825121138 669.2069795569328,572.5928142712525 670.5528900367308,573.2060521248977L673.0,574.3210300406162L673.0,576.6918998166503C673.0,577.9958781934691 673.675,579.3217913962116 674.5,579.6383736005225C675.325,579.9549558048334 676.0,580.7836294485514 676.0,581.4798705865626C675.9999999999999,582.1761117245737 676.8736863274856,584.720876422279 677.9415251721905,587.1349032481298L679.883050344381,591.5240429314948L684.1203328503855,594.0120214657475C689.7032548311732,597.2901106719601 695.2818121919082,602.654207414097 694.7546337003708,604.2375000000034C694.1324544625109,606.1061114669393 691.0228252002072,606.3931981358395 689.6744916047222,604.7065080227471C689.028521222125,603.898435108651 687.1617742682386,602.3963955204936 685.52616504053,601.3686422712863L682.5523300810601,599.5L684.1055465269885,601.7289141930065C685.771215306664,604.1192010030636 691.0516023923859,607.9678245838452 696.2775956832381,610.6005432324462C698.0499180574571,611.4933928604981 700.85,613.4738860904962 702.5,615.0016392991084C704.15,616.5293925077207 706.5737757453073,618.1037862322145 707.8861683229051,618.5002920202056L710.2723366458101,619.221211634735L709.5182826551497,616.3606058173675C708.2718258935696,611.6320034792903 708.4127063495758,610.5945988484123 710.3556249757814,610.1946490503401L712.2112499515628,609.812668650157L716.8556249757814,613.0604059428217C719.4100312391016,614.8466614537872 723.075,617.7674871950056 725.0,619.5511298121959C726.925,621.3347724293861 731.1412624936802,624.5279402014017 734.3694722081782,626.6470581944527C737.5976819226762,628.7661761875037 741.4226819226762,631.2851309249812 742.8694722081782,632.2447353888471C744.3162624936801,633.2043398527129 746.2177555970495,633.9918398527129 747.0950124378879,633.9947353888472C747.9722692787263,633.9976309249813 749.5462070362566,634.9460706382339 750.5926518990664,636.1023791960752C751.6390967618762,637.2586877539163 753.8463411648266,638.8832708255841 755.4976394611786,639.712563799781C757.1489377575303,640.5418567739781 760.075,642.6922908743015 762.0,644.4913062449443C767.0299569505196,649.1920698125576 782.819774065821,659.5400293091824 787.4020009043604,661.1386729985984C789.5481014017587,661.8874028493692 792.2202277235986,663.7375 793.3400593973379,665.25C794.4598910710773,666.7625 795.6974500980539,668.0 796.090190568397,668.0C797.2473140216783,668.0 794.1413795924312,658.8137040343418 792.2941139127511,656.7724984343782L790.5993457504412,654.899800694362L791.7902367975653,651.744770065502L792.9811278446895,648.5897394366422L790.4905639223446,645.9901508572063L787.9999999999998,643.3905622777706L787.9999999999999,640.1631625079835C788.0,638.3880926346005 787.3249999999999,635.3202603425019 786.5,633.3457574144311C785.675,631.3712544863602 784.9999999999999,628.2093206004889 784.9999999999999,626.3192376680505L784.9999999999999,622.8827232454353L788.1673645450949,618.9413616227176L791.3347290901899,615.0L793.7506978784282,615.0L796.1666666666666,615.0L795.741364113062,613.75L795.3160615594572,612.5L791.4080307797286,612.6642335688097C789.2586138508779,612.7545620316549 785.2371551125311,613.1397396056998 782.4714558056246,613.5201837333539L777.4429116112492,614.2119003290883L773.850348492949,612.7108316143047L770.2577853746488,611.2097628995211L769.5475883455921,607.8548814497606C769.1569799796109,606.0096966523922 768.8880868802283,602.3636673344927 768.950048124742,599.7525940766504L769.0627049329487,595.0051881533009L766.8582545669616,591.1748716174809L764.6538042009745,587.3445550816609L765.4011942994914,585.4222775408305L766.1485843980084,583.5L767.910931157554,585.659041615848C768.8802218753042,586.8465145045643 770.7592903857523,587.9715145045643 772.0866389585499,588.159041615848L774.5,588.5L774.8100344946124,590.6773794897786C774.9805534666493,591.8749382091569 775.7680534666493,593.3925383311058 776.5600344946124,594.0498242052207L778.0,595.2448894308842L779.6054728163915,593.9124653370857C780.8202687166412,592.9042742858175 785.9999999999993,582.8733253696356 786.0,581.5289705160322C786.0000000000001,581.4067777025089 784.4250000000002,579.6850759923466 782.5000000000002,577.7029667156714L779.0000000000002,574.0991316671714L779.0000000000001,571.7277046654978C779.0,570.4234198145773 779.7294911045135,567.2153390456467 780.6210913433633,564.5986362900965L782.2421826867267,559.8409949163688L781.7354449551221,555.3452310636827L781.2287072235176,550.8494672109966L782.6255518500552,550.3134476340886L784.0223964765927,549.7774280571806L788.5363362711021,553.4762623476815C791.0190031580821,555.510621207457 794.5014639508488,557.5843547544565 796.2751380328057,558.0845591187916C801.0991243822879,559.4450001660226 811.9757579113553,568.0745076722395 818.5015735620375,575.7189854073454L824.2754187245835,582.4825890936397L830.1549303528576,585.7412945468199C833.3886617484084,587.5335825460689 836.7496533677513,589.0 837.6238006180643,589.0C838.4979478683771,589.0 842.4276984226224,592.0689257157102 846.3565796274984,595.8198349238005C853.9152854750066,603.036143558808 858.7670944718807,607.0 860.0412390767012,607.0C861.4912266452616,607.0 859.7541739317418,602.9388053978314 857.873738509842,601.9324269011449C856.8416985305219,601.3800958661025 854.8735162010927,598.7105037605871 853.4999999999997,596.0C852.1264837989066,593.2894962394128 850.2001609938645,590.6423066714874 849.2192826554618,590.1173565157214C847.478702988372,589.1858265475402 843.0,581.3357657742629 842.9999999999998,579.2164892471567C842.9999999999997,578.1728669423022 820.7310845817807,556.8014908617732 819.0037730824904,556.1874202360884C818.5201846662129,556.0155013659371 815.544884670668,552.7217560067413 812.3919953146128,548.8679861045423L806.6594692126943,541.8611317369079L801.8889444582035,539.4437238980827L797.1184197037128,537.0263160592574L794.1857419257074,537.6128516148585L791.2530641477018,538.1993871704597L789.7240190828368,536.016369543762L788.1949740179717,533.8333519170644L784.3474870089858,532.9405325928373C778.6295309696728,531.613666086191 778.6877448723887,531.5892950700984 774.0981048300476,537.2313951938303L769.8425580775321,542.4627903876607L770.3621338208591,545.0606691042956C771.0507999056038,548.5039995280184 768.7413283169479,555.016307706239 766.3820432767873,556.2838321548976C763.5538473869515,557.8032786715078 763.5447370707284,557.839458782496 765.4579854935524,559.953574492947L767.2370427133169,561.9194105930725L766.5381274223523,564.7041109176896C765.5026295339993,568.8298631270279 764.1345047466676,570.0 760.3461704882332,570.0L756.9372304073504,570.0L756.3751143479085,571.4648509698098L755.8129982884667,572.9297019396197L758.8709420885236,578.2744302956062L761.9288858885805,583.6191586515927L761.1629583379308,586.483068485477C760.7416981850736,588.0582188941135 759.7272151841465,589.769487147345 758.9085516692043,590.2858868259916L757.4200725511273,591.2247953326219L753.6422763680949,588.6611135948243C751.5644884674272,587.2510886390356 748.9622445627735,584.9504251308804 747.8595121355315,583.5485280211458L745.8545440860004,580.9996241852649L741.6772720430001,581.6116865507449L737.5,582.2237489162248L736.1280279397843,584.1118744581124C734.3856913040983,586.509700477899 732.8743431957851,586.4867043454223 727.9761616375198,583.9878385749247L724.0319994096327,581.9756771498494L723.3775185187778,579.3680175768303L722.7230376279228,576.7603580038112L724.8219057229021,569.6301790019056C725.9762831751408,565.7085805508575 727.168455131489,560.5903922342624 727.4711767370095,558.2564271872496C727.7738983425298,555.9224621402369 728.8912547478901,552.5827883167027 729.9541909711436,550.834929801618L731.8868022861496,547.6570052287368L730.7552469254591,545.5785026143684C730.1328914770793,544.4353261764658 729.5958609626956,541.475 729.5618457823844,539.0L729.5,534.5L724.1251726498332,534.7920203627996L718.7503452996664,535.0840407255993L716.897757540353,533.4074718456997L715.0451697810397,531.7309029658L708.7725848905199,532.9609833968798C705.3226632007339,533.6375276339735 701.104167398788,534.7722570580216 699.3981497750844,535.4826043392089C697.692132151381,536.1929516203962 694.4038415162682,537.0938735828613 692.0908372526119,537.484653144687L687.8853749550547,538.1951614389153L684.896418375243,536.957095086213L681.9074617954313,535.7190287335106L682.2122815355795,534.1095143667553L682.5171012757276,532.5L685.2855783695732,532.1809695959744L688.0540554634188,531.8619391919487L687.7770277317094,529.3160659677643L687.5,526.7701927435799L689.0,526.002008185771C691.2793746311871,524.8346879236782 698.9064238385905,522.92433341332 704.5,522.119707953355C710.1765828454336,521.303142137277 712.0192473864442,520.4296375532078 717.8462585585717,515.7929904355318C725.8521290927719,509.4225896519457 727.5312974966151,508.31609623702724 730.990380609086,507.1316289779852C734.6907261219524,505.8645480884477 742.0,499.4064134430511 742.0,497.4040410386913C742.0,495.99858579239964 744.2610986133162,494.9999999999999 747.4434720584974,494.9999999999999C748.6974154755908,494.99999999999983 752.7007303628935,496.34999999999985 756.3397273636147,497.9999999999999C763.7577982858003,501.36351390759074 766.191137882413,501.6795455155027 767.9892225893022,499.5129859854584L769.2233346094887,498.0259719709168L768.5926152765355,495.5129859854584L767.9618959435822,492.99999999999994L766.0879367759946,493.0C765.0572592338216,493.0 763.9549558048604,493.675 763.6383736005255,494.5C763.3217913961905,495.325 762.1602009613483,496.0 761.0570615230981,496.0L759.0513534535526,495.99999999999994L751.9553158318722,489.8926276782404C748.0524951399481,486.53357290127263 744.3747806946961,482.72189914051046 743.7826170646456,481.4222415432133L742.7059559190992,479.0592277299458L744.0772971151721,477.40686267400025L745.4486383112448,475.7544976180547L752.3013196909044,476.3913871871075C756.0702944497172,476.7416764500866 760.5286220880034,477.73912091070724 762.2087144426517,478.6079304329312L765.2634278147395,480.1875841097021L769.6899632672915,479.5237841243156L774.1164987198435,478.8599841389291L774.650630468017,477.46805911531976C774.9444029295124,476.7025003523346 776.0737492409648,475.79398057076185 777.1602889379112,475.4491262673803L779.1358156596318,474.8221184430501L783.0679078298159,477.4110592215251C786.6092098051375,479.7426986378958 791.6135036444018,482.845973474701 796.1520958674657,485.52485765172185C800.3113893528166,487.9798624104375 812.0202102655171,496.22368390215235 812.5382019985807,497.061812132141C813.4072482597833,498.4679585205631 823.411823219377,502.99999999999994 825.6468740876825,502.99999999999994C826.7215142396151,502.99999999999994 830.1252088038622,505.24999999999994 833.2106397860091,508.0C839.2385619916389,513.3725998608942 840.9999999999999,514.0798018196816 841.0000000000002,511.12736001771714L841.0000000000003,509.25472003543433L836.5223430878727,505.1273600177172C834.0596317862024,502.8573120079728 831.5961878520067,501.00000000000006 831.0480232341041,501.0C830.4998586162015,501.0 829.3571871198635,499.65761710679556 828.5087532422416,498.0169269039901C826.8740959413586,494.85584825161413 822.4159651594501,492.00000000000006 819.1160108134341,492.00000000000006L817.1327017730996,492.00000000000006L812.4188343376101,486.0C809.8262072480908,482.7 807.3430113250239,479.99999999999994 806.9006211752392,479.99999999999994C806.4582310254544,479.99999999999994 804.6078211649393,478.46738751009303 802.7885992629833,476.59419446687355C800.9693773610272,474.721001423654 797.0698882443539,471.5658822734762 794.1230678925981,469.58281857758953C788.798114210674,465.99938929843125 786.3535859028791,463.74255811970835 770.75,448.0043945543448L766.0,443.2134267985495L765.9999999999999,440.67791548033455L765.9999999999998,438.1424041621196L762.4999999999998,434.4313230369023L758.9999999999998,430.7202419116851L758.9999999999999,427.36012095584255C759.0,425.5120544301291 759.4201099444394,424.0 759.9335776543098,423.99999999999994C760.4470453641802,423.9999999999999 761.0095453641802,422.76249999999993 761.1835776543098,421.24999999999994L761.5,418.5L763.8008798010017,418.1737815708609L766.1017596020033,417.84756314172176L774.8008798010017,426.2402295410156C782.836258761008,433.9925370687359 787.7452946522703,438.10829810425975 812.0856817638153,457.5C831.5690422129497,473.0221655278302 843.6681290088009,482.12242078605715 867.2358504381305,498.980867187649C870.6811326971587,501.445344140856 878.0226585880592,506.39534414085597 883.5503524179094,509.980867187649C896.3437839250868,518.2792905317285 905.3954981084654,524.9137712865086 914.3775071399722,532.5757216632476C924.3824132551357,541.1102370383069 940.8267017721081,552.0402733068377 962.5,564.5613312412688C968.0,567.7387811113927 976.775,572.8140057115555 982.0,575.8396081305197C987.225,578.8652105494838 995.9403732605421,583.5512558119028 1001.367496134538,586.2530420470064C1006.7946190085338,588.9548282821099 1015.0249590403499,594.0571175047236 1019.6571406496851,597.5914625417032C1024.28932225902,601.1258075786828 1031.6305158545124,605.803066346903 1035.9709041952237,607.9853709155257L1043.862519360153,611.9531974039305L1046.643528167469,615.5992879134207L1049.424536974785,619.2453784229108L1056.9622684873925,622.9576600373152C1061.1080208193266,624.9994149252376 1068.55,628.7129956076067 1073.5,631.2100615536908C1078.45,633.7071274997751 1090.6,639.2258218857344 1100.5,643.4738268558226C1123.1576777984942,653.1960417950813 1131.2010370331006,657.2026926648301 1137.5,661.9046935940478C1140.25,663.9574922250761 1144.525,666.4943599745682 1147.0,667.5421774818079C1149.475,668.5899949890477 1154.1118775228547,671.0341576722391 1157.3041722730104,672.973650111122C1166.4996971528656,678.5604308979428 1173.3164324568104,681.8787953175026 1175.726947020152,681.9417965191396L1177.953894040304,682.0000000000002L1179.570025075502,684.466527723157C1181.5916242872897,687.551878101554 1192.2319162732588,693.7326758247657 1214.4644812352208,704.7362323016689C1218.2949459145923,706.6320429966722 1222.7169722914796,709.26694964948 1224.2912065171922,710.5915804190194C1225.865440742905,711.9162111885587 1227.604453954026,713.0 1228.1556803196831,713.0C1228.7069066853405,713.0 1231.7098803084532,715.1932693328205 1234.8289550377117,717.8739318507122C1237.9480297669704,720.554594368604 1241.5291070780036,723.2793148983468 1242.7869046177857,723.928866361252L1245.0738092355714,725.1098690210796L1247.3792372645908,730.3049345105399L1249.68466529361,735.5L1264.7737843794566,743.0L1279.8629034653034,750.5L1279.9314517326516,801.75L1280.0,853.0L640.0,853.0L0.0,853.0L3.776509700229489e-15,780.5190520282149"/><path stroke="none" fill="000000" fill-rule="nonzero" d="M182.08991862391247,655.9268120913819L179.6798372478249,653.9201627521751L180.58991862391247,653.0671080641298C181.0904633807606,652.5979279857049 184.77257328773408,651.4832171769294 188.77238508385352,650.5899729335174C192.77219687997294,649.6967286901055 197.72219687997293,648.3198062992533 199.77238508385352,647.5301453982903C204.4168490162698,645.7412600820934 214.92925192637492,643.8382412971113 216.11579149102812,644.5715630770634C217.90682774671058,645.6784843581585 216.84721481814012,646.8916419123572 210.00744147938082,651.5650516996659L203.01488295876163,656.3428549703395L197.59600338255044,656.1236228185455L192.17712380633924,655.9043906667514L191.52954490879466,656.9521953333757C191.17337651514518,657.5284879000191 189.44602365871884,657.9850288218825 187.69098300562507,657.9667307152943L184.5,657.9334614305885L182.08991862391247,655.9268120913819"/><path stroke="none" fill="000000" fill-rule="nonzero" d="M282.88930903941497,629.25C282.8284290110932,628.8375 282.8560576443244,627.5224184864921 282.95070600215087,626.3275966366491L283.1227939254718,624.1551932732983L280.8113969627359,623.8275966366491L278.5,623.5L278.18931560122473,621.3176610631061L277.87863120244947,619.1353221262123L280.0063733772531,617.9965890720074L282.1341155520568,616.8578560178025L284.6794081929963,618.5255958092887L287.22470083393574,620.193335600775L286.57580849204703,624.2512853797364C286.2189177040082,626.483157758165 285.69180236890395,628.6896572479907 285.40444108070415,629.1546175793488C284.7574090523277,630.2015373930717 283.0393604774871,630.2666916788803 282.88930903941497,629.25"/><path stroke="none" fill="000000" fill-rule="nonzero" d="M695.7838341869826,601.2791300374372L694.0676683739651,597.6233908846498L695.0634208814245,596.4235825128108L696.0591733888838,595.2237741409717L693.3682533743419,592.0257974044478C691.8882473663438,590.2669101993597 689.624933353845,588.4276988988197 688.3386666798999,587.9386611810257C687.052400005955,587.4496234632317 686.0,586.3058232756524 686.0,585.396882986405C686.0,584.4879426971577 682.85,580.0035833850001 679.0,575.4316400704993C675.15,570.8596967559984 672.0,566.7119816962452 672.0,566.21449549327C672.0,565.7170092902948 671.0539293617662,564.4537929637431 669.8976208039248,563.407348100933C667.1332156253973,560.9055957977273 664.7237369699641,556.1623132070442 665.3664745931594,554.4873658097852L665.8776569978812,553.155245816471L667.9388284989407,553.6942542721965L670.0,554.2332627279219L670.0,552.7966299725194C670.0,552.006481957048 668.425,549.5199639434729 666.5,547.271034386797L663.0,543.1820715564774L663.0,534.093916601272L663.0,525.0057616460667L659.3804674905032,520.999371829536L655.7609349810062,516.9929820130053L657.0029122059452,515.4964910065027C658.8668301477821,513.2506072810947 660.8935448879724,513.674528919928 663.9536187916011,516.9503487539246L666.7096571838204,519.9006975078493L667.3318057682061,525.1537687694893L667.9539543525917,530.4068400311294L671.0882194380288,535.4534200155647C674.2148224403712,540.4876630361091 681.0511764939242,548.906373828082 692.598847465134,561.9429427780361C695.9532135709578,565.7298037936456 700.1157135709577,570.9689621380978 701.848847465134,573.5855168768189L705.0,578.3428891290389L705.0,581.4771649065299L705.0,584.6114406840209L707.5,588.0C708.875,589.8637076237885 710.0,591.8874823214743 710.0,592.4972771059684C710.0,593.1070718904623 711.4132958130878,595.5277788027079 713.1406573624172,597.8766257998473L716.2813147248345,602.147256703737L714.6612671550926,603.7673042734789L713.0412195853506,605.3873518432208L710.7706097926753,603.3424422229267C709.5217744067039,602.217741931765 707.9366573265225,600.9785093187211 707.2481273922724,600.5885919717181L705.9962547845447,599.8796513408035L705.022878239336,602.4398256704018L704.0495016941275,605.0L700.7747508470637,604.9674345951123L697.5,604.9348691902245L695.7838341869826,601.2791300374372"/><path stroke="none" fill="000000" fill-rule="nonzero" d="M679.1089294687463,594.75L678.2823073456021,592.5L676.141153672801,592.1804490469242C673.3577720260839,591.7650504376227 673.4001935553472,593.4664712753778 676.2225062434054,595.4432960313509C679.2822533121109,597.5864263010856 680.080552551681,597.3946811371175 679.1089294687463,594.75"/><path stroke="none" fill="000000" fill-rule="nonzero" d="M414.93737397111454,580.5754597484706C415.58761884221394,579.7919626101294 418.66008154346065,577.2044626101293 421.7650688627739,574.8254597484706C424.87005618208707,572.4464568868118 433.5056377731366,565.6627838695982 440.95525017621713,559.7506308213294C453.6209821907429,549.6988667715289 457.0,547.633266565636 457.0,549.9424438242943C457.0,551.4797159932281 423.30304085286934,577.7319021357079 417.31574145408933,580.8591368625221C414.3698197217305,582.3978253646848 413.5100519833023,582.2952775319643 414.93737397111454,580.5754597484706"/><path stroke="none" fill="000000" fill-rule="nonzero" d="M811.3438450460364,561.528285036969C808.8877101580283,559.8079411958461 804.7101069719827,552.2971977331662 805.8258190582118,551.6076497422175C806.2410726793576,551.351008890398 808.7282611991194,552.4776278855769 811.3529046576823,554.1112475092817L816.1249836732514,557.0814650069269L815.8124918366257,559.7136136250901C815.4291527067979,562.942515767813 814.1212376977993,563.4736465747936 811.3438450460364,561.528285036969"/><path stroke="none" fill="000000" fill-rule="nonzero" d="M640.5,553.4674593905331C638.85,551.5483341379843 637.3932286930964,548.7455590808898 637.2627304291032,547.2390703747676C637.1322321651098,545.7325816686455 636.9072321651098,542.925 636.7627304291032,541.0L636.5,537.5L638.8430872960328,537.1682505456433L641.1861745920656,536.8365010912866L645.5408385296527,541.3812800450216L649.8955024672397,545.9260589987566L650.5589752796766,549.4626731411794L651.2224480921136,552.9992872836021L648.8612240460568,554.9663743570953C645.5304381517881,557.7411834177311 643.927316104788,557.4537920482094 640.5,553.4674593905331"/><path stroke="none" fill="000000" fill-rule="nonzero" d="M624.25,520.3594367164931L620.0,517.7969166471237L620.0,516.06256788568C620.0,513.893429063127 626.8324558580894,505.0 628.4989160221007,505.0C629.1761676489639,505.0 630.915969027708,504.0673389329352 632.3651413081986,502.9274198509671L635.0,500.8548397019342L635.0,498.61451105573315L635.0,496.374182409532L638.0,493.5C639.65,491.9191996747574 641.0,490.02536117659525 641.0,489.2914700040842C641.0,487.3863218369902 636.5925011675428,485.63447561344896 633.6545138054353,486.3718635018067L631.1615441122025,486.9975590652192L629.5583399765874,491.82435477645663L627.9551358409724,496.651150487694L624.7064974192713,499.7998548208673L621.4578589975703,502.94855915404065L617.6419173712354,502.3293170755799L613.8259757449007,501.7100749971192L613.2689770278805,500.2585596078201L612.7119783108604,498.807044218521L616.6059891554303,494.9942907373732C618.7476951199436,492.8972763227419 623.875,487.06358650470025 628.0,482.0305355861695L635.5,472.8795339161136L638.3318621981145,473.4311393976797C639.8893864070776,473.7345224125411 642.0268864070777,473.52079459009593 643.0818621981145,472.9561886811349L645.0,471.929632483024L645.0,469.1648162415119C645.0,467.64416730868027 644.4567857142857,465.8567857142856 643.7928571428572,465.1928571428571L642.5857142857143,463.98571428571444L644.2857142857142,462.28571428571433L645.9857142857142,460.5857142857143L647.1928571428572,461.79285714285714C647.8567857142858,462.45678571428573 648.9850000000001,463.0 649.7,463.0L651.0,463.0L651.0,458.93425854591067C651.0,456.6981007461615 650.5463897627551,454.02093861050423 649.9919772505671,452.9850093555611L648.983954501134,451.10150161930085L650.6916674534409,447.52039032620064L652.3993804057479,443.93927903310043L653.8264384035334,444.4868925684027C655.3782255604353,445.08236917296006 658.0,443.3646958059245 658.0,441.75255528455784L658.0,440.75L655.0387734790706,441.3422453041859L652.0775469581413,441.93449060837173L651.4526835821457,440.92344042768593C651.1090087253482,440.3673628283088 651.3716607817154,439.25710244142516 652.0363548185173,438.4561951235001L653.2448894308843,437.0L658.4353535106761,437.0L663.625817590468,437.0L666.3129087952341,439.8047188611145L669.0,442.609437722229L669.0,445.0822126177091C669.0,448.001012659152 671.7326500550374,452.2832653416272 673.0684220193241,451.4577128664788C673.5807899086959,451.141052096103 674.0,450.022380786229 674.0,448.97177662231434C674.0,446.4387124974432 677.9827537100256,438.8713072178661 678.9887053302805,439.49301951022164C679.4228969910159,439.7613647141879 679.5937457941048,443.0103206300592 679.3683693371447,446.71292154549116L678.9585939608537,453.4449232099129L675.9792969804269,456.16609074503805C674.3406836411921,457.6627328893569 673.0,459.2770529308779 673.0,459.7534686150848C673.0,460.571088003896 661.1272906271796,472.9241245028396 657.5159252773524,475.8639733191849L655.8403949046319,477.22794663836976L656.4044968764654,479.4755079156212L656.9685988482989,481.7230691928727L654.4505203511518,486.61153459643634L651.9324418540047,491.5L651.9984359083231,497.0C652.0347326381983,500.025 652.0625997546534,504.86035259206244 652.0603628337791,507.74522798236103L652.0562957049166,512.9904559647221L650.5024677062268,515.995227982361C648.6893991605446,519.5013159385057 647.01700818898,519.7812627425571 644.5,517.0C641.1984041183841,513.3517776156939 637.2495550039029,514.637111697218 633.3161079577251,520.6403106802195C631.3630028349844,523.6211258657006 629.5673225048494,523.5654945127251 624.25,520.3594367164931"/><path stroke="none" fill="000000" fill-rule="nonzero" d="M670.8351627562523,519.25C668.8712597301568,517.1875 667.0275312437069,514.5084141811105 666.7379883419193,513.2964759580235L666.2115467023053,511.092951916047L667.5266518481883,509.2964759580235L668.8417569940714,507.5L681.9447701403624,507.77252505652905L695.0477832866533,508.04505011305804L695.7738916433266,506.2722399919043C697.009135611857,503.2563636569488 707.2370964176121,494.37760704328264 712.5552281964046,491.70458513513535C715.3356037044272,490.30710102700226 719.2336088665909,488.8591996989346 721.2174618901017,488.4870266283184L724.8244673873942,487.81034831810706L728.1622336936971,490.15517415905356C729.9980051621637,491.4448283715741 731.7958659251311,492.9091922992408 732.1574798336248,493.40931622053506C733.421116327602,495.15696702603395 731.7643505063783,496.9863656728658 728.0,498.0C725.9131049220829,498.5619424876934 723.9580255689299,499.66700032300884 723.6553792152157,500.4556840784787C723.3527328615015,501.2443678339487 721.393962666104,502.1735244289239 719.3025565587768,502.520476511757C715.2220844749934,503.1974030462313 711.4334184941654,504.42912337631736 706.25,506.76394884592423L703.0,508.22788288574054L703.0,510.0549244484953C703.0,511.05979730801045 703.45,512.1600813061875 704.0,512.5C704.55,512.8399186938124 705.0,514.1647218712134 705.0,515.444007060891L705.0,517.769980133032L702.75,519.2278431635573L700.5,520.6857061940824L690.7069572662194,520.8307051105935C685.3207837626401,520.9104545146746 680.0628674169802,521.4311706210061 679.0226987203087,521.9878520135524C675.9312374115239,523.642351896008 674.5907048996196,523.1940876498342 670.8351627562523,519.25"/><path stroke="none" fill="000000" fill-rule="nonzero" d="M487.0,502.0480406785607C487.0,500.677099602097 496.0094477367215,494.6729206106601 496.82027530661924,495.50350072348624C497.19412388797866,495.88645661745585 495.73752552799124,497.72983272947715 493.58339006220274,499.59989208353363C489.75220937326895,502.92583671338946 487.0,503.94929384515996 487.0,502.0480406785607"/><path stroke="none" fill="000000" fill-rule="nonzero" d="M517.0,496.18709120476603C517.0,495.18999136738734 518.2803820960477,493.1474985102187 519.8452935467725,491.64821818883587L522.690587093545,488.9222539681397L524.0547341401026,490.5659506042199L525.4188811866602,492.2096472403001L521.9594405933301,495.07792281900674C517.8996218261403,498.4439812061218 517.0,498.64517972234876 517.0,496.18709120476603"/><path stroke="none" fill="000000" fill-rule="nonzero" d="M674.8854810250615,489.378100137257L672.6699565116231,487.01978236295764L673.7340817794352,484.6842818043199L674.7982070472473,482.3487812456821L679.5580535872635,480.5309792667572L684.3179001272798,478.7131772878322L687.5299986023606,479.8746871661973C693.192955860035,481.9224390787171 694.6440722667915,480.3448819580728 695.2334571898746,471.5L695.5,467.5L698.1304294833542,467.19511568806934L700.7608589667085,466.8902313761387L703.2257073058763,469.19511568806934C706.1617542900473,471.9406187380427 709.481971521444,479.3016190573136 708.7015865286915,481.3352697497581C708.397071991642,482.12882191296137 705.9771408938933,483.5898164067273 703.323961867028,484.58192418034906C700.6707828401626,485.5740319539708 697.0060952027072,487.5013248797624 695.1802115615715,488.86479734877486L691.860423123143,491.34383820152476L684.4807143308215,491.54012805654054L677.1010055384999,491.73641791155626L674.8854810250615,489.378100137257"/><path stroke="none" fill="000000" fill-rule="nonzero" d="M659.2272261656906,489.75L658.2095629004967,488.5L658.8547814502483,484.63775003781655L659.5,480.7755000756331L663.2626065084227,479.27576779510485L667.0252130168453,477.7760355145766L668.5126065084227,479.0104624727305L670.0,480.24488943088437L670.0,483.602120850035L670.0,486.95935226918573L666.0398380672964,488.97967613459286C661.4132722427779,491.3399738974095 660.596831178953,491.4322915055818 659.2272261656906,489.75"/><path stroke="none" fill="000000" fill-rule="nonzero" d="M731.0,486.0C731.0,485.45 731.45,485.0 732.0,485.0C732.55,485.0 733.0,485.45 733.0,486.0C733.0,486.55 732.55,487.0 732.0,487.0C731.45,487.0 731.0,486.55 731.0,486.0"/><path stroke="none" fill="000000" fill-rule="nonzero" d="M715.072767273764,475.57414445014547L710.7291186014137,471.1482889002909L711.3596335073929,469.50519339352286L711.9901484133721,467.8620978867548L714.0222971686364,468.5070768464136L716.0544459239009,469.1520558060724L720.3882655292912,467.05408972926915L724.7220851346814,464.9561236524659L726.3610425673407,465.5850506304173L728.0,466.2139776083687L728.0046274629098,462.3569888041843L728.0092549258195,458.5L731.0553132877255,455.25C732.7306453867739,453.4625 734.5111738174026,452.0 735.0120431335672,452.0C735.5129124497319,452.0 737.7186374021181,453.8139611427708 739.9136541388702,456.0310247617128L743.9045936602377,460.06204952342557L746.5411957422481,459.4003045252107L749.1777978242585,458.7385595269958L753.3388989121293,460.07792062154374C755.6275045104582,460.8145692235451 758.85,462.22171120277415 760.5,463.20490279760827C763.9099339232729,465.2367927202153 765.0,465.4313009216515 765.0,464.0078696315922C765.0,463.4621979289679 763.3125,462.2211565947514 761.25,461.25L757.5,459.4842607368156L757.5,457.0754637017411C757.5,453.4895701994832 759.2453314531728,453.54162851042037 764.1198727612149,457.2729158211888L768.5,460.62574681652086L768.5,463.2019406845384C768.5,464.618847311948 769.3496054690822,466.7196133513186 770.388012153516,467.87030966091754L772.276024307032,469.9624847692792L771.0558758582943,471.43267370951827L769.8357274095564,472.90286264975737L764.5568250016788,472.68920367352985L759.2779225938012,472.4755446973024L757.6202036815403,471.09976019513516L755.9624847692792,469.72397569296794L754.1525017130555,471.361987846484C752.0224440648681,473.28966352467535 749.6903641694046,473.4480873267296 747.1154570745699,471.84003123128525L745.2580518380163,470.6800624625705L742.2246554196083,472.84003123128525C740.5562873894839,474.02801405407837 738.074980195998,475.0 736.7106394340842,475.0L734.230019866968,475.0L732.5919569536297,477.5L730.9538940402915,480.0L725.185154993203,480.0L719.4164159461144,480.0L715.072767273764,475.57414445014547"/><path stroke="none" fill="000000" fill-rule="nonzero" d="M591.0,474.9102925896496C591.0,473.53919369123304 595.0811083034132,470.0776875511032 596.75,470.03326928470574C598.7957106678564,469.97882182019816 598.1784775416156,471.71444924723863 595.3651413081986,473.9274198509671C592.4384406920556,476.2295628911442 591.0,476.5534479712853 591.0,474.9102925896496"/><path stroke="none" fill="000000" fill-rule="nonzero" d="M719.7989876613781,460.4656543280447C719.4670709824567,460.1337376491233 717.0140146627242,459.55012128743095 714.347751395306,459.16872907983947L709.5,458.4752887024004L709.5,456.9876443512002L709.5,455.5L713.1903015483574,454.5882183319941L716.8806030967147,453.67643666398817L720.1903015483574,454.6256456904787L723.5,455.5748547169692L723.5,458.02373231545243L723.5,460.4726099139357L721.9512362660721,460.7708745563733C721.0994162124117,460.93492010971397 720.1309043402994,460.7975710069661 719.7989876613781,460.4656543280447"/><path stroke="none" fill="000000" fill-rule="nonzero" d="M725.010569057905,452.51273493570125C723.4263291483193,450.6038426233211 724.4968469397361,447.7543551262946 726.639792519883,448.17609343194397C727.5450050094865,448.35424204437476 728.7838658928052,449.30030997450905 729.3928167050356,450.27846661002013L730.5,452.0569332200403L729.0,453.0131538355031C726.9667809696878,454.30929113719367 726.4475219782945,454.2441572830283 725.010569057905,452.51273493570125"/><path stroke="none" fill="000000" fill-rule="nonzero" d="M739.8848586918014,448.1474004861021C738.5731864113105,447.1284707534582 735.025,445.49392781774446 732.0,444.5150828511826C725.5623856939203,442.43196669905944 724.3606110906884,441.5980251004122 722.4377302365002,437.8795835555371L721.0073336400922,435.1135015499117L721.8861295507974,434.57037580792144C722.3694673016852,434.2716566498268 723.9012954143265,434.92111880109667 725.2901920233335,436.0136250329656C726.6790886323404,437.1061312648345 728.7224540266277,438.0 729.8310040106387,438.0C730.9395539946496,438.0 733.1185758129876,439.0598096756511 734.6732747180565,440.355132612558C736.2279736231254,441.6504555494649 739.1875,443.26035398675725 741.25,443.93268469543L745.0,445.155104165744L745.0,447.577552082872L745.0,450.0L743.6348586918014,450.0C742.8840309722921,450.0 741.1965309722921,449.16633021874594 739.8848586918014,448.1474004861021"/><path stroke="none" fill="000000" fill-rule="nonzero" d="M620.6876723959756,442.2862264431445L617.8753447919511,441.8551266242777L619.0601171114176,440.4275633121389L620.2448894308843,439.0L624.4313150803373,439.0C629.55108983889,439.0 631.9582986446072,437.36375524212315 633.3998097699533,432.90387224112936L634.5,429.5L636.5,429.5L638.5,429.5L638.1787717765899,432.5C637.4787233329588,439.03786055471267 629.3104259199849,443.6080025680219 620.6876723959756,442.2862264431445"/><path stroke="none" fill="000000" fill-rule="nonzero" d="M708.5,440.0L707.8819660112501,439.0L709.4409830056251,439.0C710.2984423525313,439.0 711.0,439.45 711.0,440.0C711.0,440.55 710.5765576474687,441.0 710.0590169943749,441.0C709.5414763412812,441.0 708.8399186938125,440.55 708.5,440.0"/><path stroke="none" fill="000000" fill-rule="nonzero" d="M692.0413565726665,433.0772754628865L690.9541634565979,431.045836543402L692.977081728299,429.022918271701C696.8221896176068,425.17781038239326 702.5314207347305,427.2242011249938 701.8267638663142,432.19495794406146L701.5,434.5L697.3142748443674,434.80435719118555L693.128549688735,435.10871438237103L692.0413565726665,433.0772754628865"/><path stroke="none" fill="000000" fill-rule="nonzero" d="M643.0,429.8278082217204C643.0,427.4877624141279 645.1924929380948,426.0 648.640983005625,426.0C651.9944061249716,426.0 653.8705297521607,427.5303565218253 652.3628677106876,429.0359462720527C651.8882904698095,429.50987120343797 649.5875,430.20317537302157 647.25,430.57662220446065L643.0,431.2556164434408L643.0,429.8278082217204"/><path stroke="none" fill="000000" fill-rule="nonzero" d="M684.0,429.03518375848796C684.0,427.95453482565637 684.9066764474451,426.5851290080998 686.0148365498778,425.99205971947333L688.0296730997557,424.91375192197074L688.6218253540621,426.45687596098537C689.5298935545651,428.8232637591741 688.288741916776,431.0 686.0313847963387,431.0L684.0,431.0L684.0,429.03518375848796"/></svg>