<svg version="1.1" xmlns="http://www.w3.org/2000/svg" xmlns:xlink="http://www.w3.org/1999/xlink" width="1280" height="1707" viewBox="0 0 1280 1707"><path stroke="none" fill="000000" fill-rule="nonzero" d="M-1.56423842188025e-14,1320.567387670557L-3.1284768437605e-14,934.1347753411142L1.783633827919649,933.5686719553441C2.7646324332754735,933.2573150931705 4.3355713186428035,931.7019341350385 5.274609128735939,930.1122698261618C6.213646938829076,928.522605517285 10.136011716265221,924.4256845457763 13.990975300816263,921.0080010005868L20.99999999999998,914.794030918424L20.99999999999998,912.0194601746542C20.999999999999975,908.5962570834233 22.361977527735164,907.4556373677109 27.5,906.575884196966C29.7,906.1991912210035 33.41250000000001,905.1793795465743 35.750000000000014,904.3096360315676L40.00000000000003,902.7282841861008L40.00000000000002,901.0765502492184C40.000000000000014,898.7959669774835 49.1296780569856,890.0 51.49678460779292,890.0C52.55723206747262,889.9999999999999 54.34430254891612,891.1530772100114 55.468052344334026,892.5623938000253L57.51123379054842,895.1247876000507L59.00561689527421,894.5505737432845C59.827527602873396,894.2347561220631 61.40087415113081,892.2941789120517 62.50194255806846,890.2381799432592L64.50388511613691,886.5L67.00194255806846,886.5L69.5,886.5L71.24844600091852,890.0C72.2100913014237,891.925 72.9975913014237,895.357399878051 72.9984460009185,897.6275552845577L72.99999999999996,901.7551105691156L74.41360886780187,902.928301728403L75.82721773560378,904.1014928876904L78.88801948068732,901.1094644243651L81.94882122577086,898.11743596104L85.62435920243985,898.7138936637539L89.29989717910884,899.3103513664677L90.68120309340559,897.4051756832339C95.99201618137145,890.0802002026618 103.1256391880146,882.4970631667818 106.96796038025643,880.0921340126418C112.14247564782124,876.8533775415182 119.92584872482486,874.692301134956 123.33468547268933,875.5478646964957L125.65085832542985,876.1291870775906L131.07542916271493,873.7183736763138C134.05894312322172,872.3924263056116 139.38226632081512,869.4383592131538 142.90503626847806,867.1537801375187L149.31007253695614,863.0000000000002L152.0461525773972,863.0L154.78223261783828,862.9999999999999L159.6227854560866,866.9999999999998L164.46333829433496,870.9999999999998L169.72878832413406,870.9999999999999L174.99423835393316,871.0L178.74711917696658,874.355682967823C184.19521575587686,879.2271632409764 186.93341612312452,880.4891327624075 192.09841419250688,880.5089680169306L196.6968283850138,880.5266274070574L200.38321042080426,883.7633137035286C202.41072054048902,885.543491166588 204.86930783202214,887.0 205.84673773532234,887.0C208.36611658484685,887.0 215.03702259512843,877.9956157471642 216.32214610275344,872.8603011344571C216.68547077252566,871.4084667584085 217.66924578563822,869.9571639040888 218.5083127985592,869.6351836804133C220.3797086059775,868.9170617290326 227.7094663248437,872.5543592045142 230.6933214885682,875.6818366595171C231.8996483072807,876.9462277649418 233.4746483072807,877.7459693928946 234.1933214885682,877.45904027719C236.0537760027731,876.7162567944208 241.99891937173118,863.6664974795941 242.0055769344029,860.310916683334C242.01440046049416,855.8636352731488 243.89465959559098,850.2544005143799 245.595363094248,849.60177934769L247.15166122636768,849.0045717194919L251.48939368111945,851.5466522508968L255.82712613587125,854.0887327823018L256.3770211430133,853.1989839705021C256.6794633969414,852.7096221240123 257.1966981711101,850.3271572479944 257.52643175227706,847.9046175793512C257.85616533344404,845.4820779107081 258.33442392865066,842.4745855672155 258.58922863051407,841.221301260479L259.05250990662927,838.942602520958L262.3985826507038,837.3469716408238L265.74465539477836,835.7513407606897L268.8305157283277,838.0328159480331L271.9163760618771,840.3142911353765L273.23139019538553,839.2229263378642C273.95464796881515,838.6226756992326 275.4327728835852,834.8958910335505 276.5161122282077,830.9411826363485C277.5994515728303,826.9864742391464 279.08186787631973,823.5220787502826 279.81037068040655,823.2425259944289C280.5388734844933,822.9629732385752 282.2778989557377,823.3459513698797 283.6748717276164,824.093588508439L286.21482222194123,825.452928760365L288.05100704579604,822.9764643801825C293.6679600148495,815.4008740734188 297.752950451857,811.017371392465 299.7323496729443,810.4415031574201C303.05118848060874,809.4759506674491 307.4748158101197,811.4002561643499 313.3000343369352,816.3435306643399C316.16001545162084,818.7705077210113 320.75,821.8906421557156 323.5,823.2771627414604C326.25,824.6636833272051 330.24937707564266,827.1935346772722 332.3875046125392,828.8990546304981L336.2750092250784,831.9999999999999L339.37169248975613,832.0L342.4683757544338,832.0000000000001L351.57533180587615,841.5C356.58415763416946,846.725 361.23412390484077,851.0 361.9085901851457,851.0000000000001C362.5830564654507,851.0000000000002 365.69204169755403,853.084454057879 368.8174462564865,855.6321201286198C371.9428508154189,858.1797861993607 376.4365334922734,861.2061321266291 378.80340776060746,862.3573333003274L383.10681552121497,864.4504263434153L385.80340776060746,862.9424132344446L388.5,861.434400125474L389.32676879097994,857.467200062737C389.7814916260189,855.2852400282317 390.7939916260189,852.2260322044829 391.5767687909799,850.6689604544063C392.35954595594086,849.1118887043297 392.9999999999999,847.0441331072801 392.9999999999999,846.0739480165184C392.99999999999994,843.7324865969985 396.1265522926794,840.9999999999998 398.80568769171884,840.9999999999999L400.95389404026946,841.0L402.3808498162853,838.75C403.16567549309406,837.5125 404.1133653221083,834.600746819864 404.4868272140948,832.2794373774756C404.86028910608127,829.9581279350872 405.96309021663666,827.0331279350871 406.9374963486623,825.7794373774756C407.911902480688,824.525746819864 409.22670137542576,821.9118351457661 409.85927167030184,819.9707447683692L411.0093994791673,816.4414895367383L415.7446660894499,811.9854310070343C418.3490627251053,809.5345988156972 421.15944784229265,807.6435959855849 421.9899663498662,807.7832024956735L423.5,808.0370325140166L423.7697996025689,800.9010744338091L424.0395992051379,793.7651163536015L425.90687665311714,791.3912577522058C426.9338792495057,790.085635521438 428.0886150215732,787.3411783355527 428.4729561466005,785.2924640057938C428.8572972716278,783.243749676035 430.0331125988811,780.3578681423729 431.0858790960523,778.8793939309892C432.1386455932235,777.4009197196054 432.99999999999994,775.6832257259251 433.0,775.062296167255C433.00000000000006,774.441366608585 434.57500000000005,772.3583333333203 436.50000000000006,770.4333333333334C438.42500000000007,768.5083333333465 440.00000000000006,766.3687300193801 440.0000000000001,765.6786593022969C440.0000000000001,764.9885885852137 440.6714049579766,759.0410885852084 441.4920110177257,752.4619926356183C442.3126170774748,745.8828966860282 442.98761707747474,737.7373527830233 442.99201101772564,734.3607839622739L443.0,728.2215679245479L444.8104280184874,725.9857839622741L446.62085603697477,723.7500000000003L449.3104280184874,723.9513888888891C453.6028323812119,724.2727941352302 456.9670790412807,724.1717303201578 465.5,723.4650452660329L473.5,722.8024960099985L485.6700626946966,724.4012480049994C492.3635971767797,725.2805616022499 499.15635277382927,726.0000000000003 500.76507513258446,726.0000000000002L503.69002487577575,726.0000000000001L505.4999999999999,724.0000000000002C507.89136802811896,721.3575680724962 508.18242656110795,721.4109240241759 514.1120044419234,725.5787260663683L519.203497442266,729.1574521327369L521.4161999425005,727.0787260663685C523.9873061453237,724.6632972038603 527.6752569882223,724.4398024974292 530.4411296350781,726.5318033718625C533.060989795934,728.5133659552423 533.5306321753023,728.41890414103 536.3899210799918,725.3352894775817L538.8607801407151,722.6705789551634L542.5746848895436,725.9314305137445L546.2885896383722,729.1922820723256L549.2692948191857,728.5961410361629C550.9086826686332,728.2682634662733 553.7900021209396,728.0 555.672226935422,727.9999999999999L559.0944538708449,727.9999999999997L563.5950934268684,723.563029723714L568.095732982892,719.1260594474281L576.3069010301215,715.2058384860134C580.8230434560976,713.0497169572352 585.1316036568959,710.5463535815638 585.8814792541175,709.6428087622992C587.3852992940822,707.8308164648424 591.5286968025104,707.4283984130801 592.5,709.0C592.8399186938125,709.5500000000001 593.9780045089535,710.0000000000001 595.0290795892024,710.0000000000001L596.940125189655,710.0000000000001L599.1581210878232,707.0C600.3780188318157,705.35 601.9343478070135,704.0 602.6166299215962,704.0C604.6574232288547,704.0000000000002 607.0,701.024036216166 607.0,698.4314522515758L606.9999999999999,696.0057616460668L610.4999999999999,692.1316800288785C612.4249999999998,690.000935139425 613.9999999999999,687.8433323569357 614.0,687.3370071789022C614.0,686.8306820008688 615.9649583434057,684.4879551991661 618.3665740964569,682.1309476195627L622.7331481929139,677.8454792930111L627.1165740964569,677.2985203650512L631.5,676.7515614370914L634.5903119253569,673.8343897108489L637.6806238507139,670.9172179846064L644.5903119253569,669.8409876112569L651.5,668.7647572379074L663.5,670.348225570092C670.1,671.2191331527936 678.875,672.2068532442648 683.0,672.5431591066948C694.5648677250124,673.4860276677006 699.9633772594858,675.8234587416309 716.6678201214156,687.1205546712968L723.5,691.7411093425934L727.4505912657856,692.4534988782582L731.4011825315713,693.1658884139231L735.048592626863,696.8329442069615L738.6960027221546,700.5L739.4077852764649,706.0C739.7992656813354,709.025 740.7381691839828,712.4516511072627 741.49423750457,713.6147802383616L742.8689071783649,715.7295604767231L747.4281858184172,716.8776000720785C749.9357890704459,717.509021849524 753.6838883748034,717.754370541933 755.7572953836559,717.422819388543L759.5271263088424,716.819999109652L761.4035631544211,718.8934384851057L763.28,720.9668778605594L763.2093048719481,732.2334389302797L763.1386097438963,743.5L764.6893390134404,748.5C766.279023636884,753.6256033360058 766.6896345541234,754.4796421233036 769.8739396223573,759.2835662198931L771.7190403865562,762.0671324397863L772.3893493498267,769.2835662198931L773.0596583130971,776.5L775.0298291565484,780.2807936167327C776.1134231204468,782.3602301059357 776.9999999999999,785.3370436946225 777.0,786.8959349249255C777.0000000000001,790.1202914332406 780.3987344259851,794.9999999999999 782.6445102374978,795.0C785.1776159726525,795.0000000000002 792.8814152065702,789.9752779843692 795.0780957456822,786.8903246386351C797.3674922524909,783.6751637230442 801.8134415105421,780.9999999999999 804.8674347051005,781.0000000000001C807.9949744358304,781.0000000000003 816.0191250985949,777.1979494276267 817.9661319802825,774.7934977089158L819.7456168338117,772.5959269377329L823.8066620873606,773.9361927347754L827.8677073409095,775.2764585318181L830.9707740626686,774.6558451874661C832.677460759636,774.3145078480725 836.1497918584878,772.4501253193462 838.6870653934502,770.5127729014077C841.2243389284125,768.5754204834693 845.1452247519163,766.5046672428691 847.4001450012363,765.9110990334075C853.4826085751428,764.3099971701515 867.0016837129999,757.4971327269079 872.3603154785192,753.3325567730873C887.4835742238632,741.579190900939 892.6653369620011,737.9999999999999 894.5579779017,738.0C895.3660157846374,738.0000000000001 896.903890880551,737.4524585695091 897.9754781148414,736.7832412655755L899.923818540824,735.5664825311509L904.211909270412,736.9168826719965C906.5703591716854,737.6596027494617 911.3694089796372,738.3196441799528 914.8764643991939,738.3836414064211L921.2529287983878,738.5L922.8764643991939,741.0C924.382747593461,743.3194489753092 926.1643143136789,745.1329437013301 931.2012849116422,749.47401218437C932.2869916130454,750.4097188857736 934.6478599752551,751.7905731526481 936.4476590498859,752.5425772218689L939.7200210037602,753.9098573477249L940.7787146640547,756.7049286738625C941.3609961772167,758.2422179032382 942.6286050114802,761.6858826483149 943.5956231846401,764.3575169962553C944.5626413578001,767.0291513441958 947.342199845053,771.7541513441957 949.7724198229798,774.8575169962553C952.2026398009066,777.960882648315 955.2551068770334,782.8779748026041 956.5556799921503,785.7843884502312L958.9203583832722,791.0687769004624L962.7101791916361,792.6514811619284C964.7945806362362,793.5219685057348 967.925290372519,795.4189937031307 969.6673119389312,796.8670927116973C971.4093335053434,798.3151917202638 973.9968335053434,800.308508241696 975.4173119389311,801.2966849815466L977.9999999999999,803.0933699630933L978.0,805.8723709548374L978.0,808.6513719465813L980.25,810.6212400406721C981.4875,811.704667492422 983.7877792024532,813.2360582811334 985.361731561007,814.024330682253C986.9356839195609,814.8126030833726 988.6845889467555,816.5921037530509 989.2481871769951,817.9787766148715C989.8117854072348,819.3654494766922 990.6031804891857,827.2831010578564 991.0068429146639,835.5735579063473L991.7407745973517,850.6471158126948L992.8937453981372,852.8014614603308C993.5278793385692,853.9863515665305 995.1612050541651,856.0702959632295 996.5233580994613,857.4324490085506L998.9999999999999,859.9090909091345L999.0,867.1554819922949L999.0000000000002,874.4018730754551L1004.7500000000001,879.9738434964013C1010.2037697283049,885.2587554283605 1019.8512996421434,891.0000000000007 1023.278243027408,891.0000000000002C1024.1466379337623,891.0000000000001 1025.564285714286,891.7071428571428 1026.4285714285716,892.5714285714284L1028.0,894.1428571428569L1028.0,897.5320019934703L1028.0,900.9211468440838L1029.5941927024653,902.2105734220419C1033.3032692904696,905.2105758212871 1036.3200143303336,908.7227002786318 1038.0028366531114,912.0C1038.991282400147,913.925 1041.1289999819915,916.4771697562131 1042.7533201683214,917.6714883471403L1045.7066295980123,919.8429766942807L1046.3167292226294,924.2941387325104C1047.134905624349,930.263386365131 1048.7344061466558,933.5198990871156 1051.6019141369623,935.0545427908625L1053.982913693862,936.3288150826825L1056.609170406497,935.1322124454705L1059.2354271191323,933.9356098082585L1062.6724997036436,937.474650563712L1066.1095722881548,941.0136913191653L1065.4576468789235,942.0685287894314C1065.0990879038463,942.6486893980776 1063.7244341390115,943.5344709700868 1062.402860734846,944.0369322827851L1060.0,944.9504983058727L1060.0,946.7841195178532C1060.0000000000002,947.7926111844424 1060.6137900072802,949.4571485819943 1061.3639777939557,950.4830915124126L1062.7279555879109,952.3484422949915L1067.8398032194802,948.0380687380269C1070.6513194168433,945.6673632816965 1073.184569822768,943.0014637653234 1073.4692485659793,942.1138475905311C1073.7539273091909,941.226231415739 1075.5722636635085,938.7223733874114 1077.5099960200187,936.549718638692C1081.4872833954669,932.0902419342558 1081.5229824612893,930.3654931868922 1077.629204310681,930.7903424405176L1074.9681921012102,931.0806848810354L1074.3541990273884,929.4806445785873L1073.7402059535664,927.8806042761391L1076.620102976783,924.8510257299172C1080.0524728370503,921.2402597867139 1084.0716715671854,919.0000000000001 1087.1172941164618,919.0000000000002C1088.3364318000886,919.0000000000002 1092.1992690593684,920.5750000000003 1095.7013769148612,922.5000000000002C1099.2034847703542,924.4250000000002 1102.918829073985,926.0000000000002 1103.9576975895966,926.0000000000001C1104.9965661052079,926.0 1107.1720114628088,927.1153027648198 1108.7920206064873,928.4784505884886L1111.7374917768118,930.9569011769772L1112.3597960238403,934.8485781451761C1112.7020633597058,936.9890004776855 1113.6180837045024,939.2680744832072 1114.3953967900547,939.9131870463353L1115.808693309241,941.0861189792956L1118.1543466546204,940.545900407624L1120.5,940.0056818359523L1127.1301147747804,944.2528409179761C1130.7766779009094,946.5887784130892 1136.3386870776044,950.2135811163587 1139.490135167436,952.3079580363526C1142.6415832572675,954.4023349563464 1147.5330316086163,957.0216927399632 1150.3600203926558,958.1287531110564L1155.5,960.1415901494078L1163.785946822226,968.5548494716404C1168.3432175744501,973.1821420988683 1172.9261339201098,977.4252843152516 1173.9702053681362,977.9840543969365C1175.014276816163,978.5428244786215 1178.1481007461612,979.0 1180.9342585459103,979.0L1186.0,979.0L1186.0,980.2558886242567C1185.9999999999998,980.9466273675979 1184.7207754063234,982.0780170952083 1183.1572786807192,982.7700880189466L1180.3145573614383,984.0283987893798L1170.9072786807192,984.1968104855259C1165.7332754063236,984.2894369184062 1156.4120843956791,984.2830471907957 1150.193520879287,984.182611090836L1138.8870417585738,983.9999999999999L1139.193520879287,978.3543900945353L1139.5,972.7087801890707L1138.3660714285945,972.3097472374002C1137.7424107143215,972.0902791139814 1136.4896360114749,972.6532211314162 1135.582127644491,973.5607294983665L1133.932112431793,975.2107447110033L1134.4732301557547,976.9156556894666L1135.0143478797165,978.62056666793L1131.5079560234158,982.560283333965C1129.5794405024506,984.7271275002843 1128.0012122295143,986.7334958789788 1128.0007820835576,987.0188797310641C1127.9987662662077,988.3562902344092 1136.0857045418657,1003.4349343311128 1137.161623382352,1004.0998887436699L1138.381733465938,1004.8539582453429L1141.3294787015252,1003.3296199417471L1144.2772239371127,1001.8052816381511L1146.685664989682,1002.9026408190756C1148.0103075685952,1003.506188368584 1149.9572738799995,1004.0000000000001 1151.0122567928029,1004.0C1152.0672397056064,1004.0 1154.4085658461,1005.2926237272198 1156.2152037716774,1006.8724971715998C1158.0218416972548,1008.4523706159797 1160.9174008241328,1010.0532200449492 1162.649779609184,1010.4299403470877L1165.7995592183677,1011.1148863509758L1169.2817946175846,1008.0574431754878C1173.3584693882624,1004.4780753191118 1174.0,1004.326271122876 1174.0,1006.9409830056251C1174.0000000000002,1008.0085236587189 1174.4500000000003,1009.1600813061875 1175.0,1009.5C1175.55,1009.8399186938125 1176.0,1010.9690775908268 1176.0,1012.0092419933653L1176.0,1013.9004499979807L1167.75,1020.8259654788726C1163.2125,1024.6349989933633 1158.4090586879806,1028.9323977438175 1157.0756859732905,1030.3757404798823C1154.1228661204143,1033.5720943864844 1152.7803118382565,1033.6775450569662 1151.48712846973,1030.8146926649888C1150.9442078113784,1029.6127736307326 1150.0264841871387,1028.4799350264457 1149.4477426380859,1028.297273544351C1146.7966198970787,1027.4605304249396 1133.9055680419367,1038.098599427512 1128.1739415785687,1045.853029751155L1125.8478831571372,1049.0L1122.4709945996942,1049.0C1119.3004977445112,1049.0 1116.6638898644196,1049.7762344698533 1111.2082934261853,1052.3158123134453C1109.947854810587,1052.902545957992 1107.7408746144688,1055.5427714580328 1106.3038929903669,1058.1829800913138L1103.6911991283632,1062.9833594245515L1098.3607481435693,1065.9916797122758C1092.281447372544,1069.4226246542373 1090.78159179246,1069.6466867838951 1088.9188326399567,1067.4021993142164L1087.5927758490288,1065.8043986284326L1084.2799900834336,1066.3419897511126L1080.9672043178384,1066.8795808737923L1079.36859222543,1064.4397904368961C1077.4362075651425,1061.4905986742644 1076.4024869037041,1061.3528857574522 1075.7222735623827,1063.9540255707702C1075.4412295213654,1065.028739634694 1073.846854841869,1066.491239634694 1072.1792187190576,1067.2040255707702C1070.5115825962462,1067.9168115068467 1066.6297819065264,1071.3398897653806 1063.5529949641248,1074.81086614529L1057.9588368870309,1081.12173229058L1059.7294184435154,1084.1793415685797C1060.703238299582,1085.8610266714795 1062.5186081112852,1087.914393564396 1063.7635735806339,1088.7423791083938L1066.0271471612675,1090.2478073702082L1069.9921333211332,1087.623903685104C1072.1728757090593,1086.1807566582968 1074.555759261956,1085.0 1075.2874301053475,1085.0C1076.0191009487394,1085.0 1077.4912490655147,1084.339311517348 1078.5588703648482,1083.5318033718845C1079.6264916641817,1082.724295226421 1081.1204596426303,1082.049295226421 1081.878799205845,1082.0318033718845C1082.6371387690597,1082.014311517348 1085.0009351394247,1080.425 1087.1316800288782,1078.5L1091.0057616460667,1075.0L1096.3804361075913,1075.0L1101.7551105691157,1075.0L1103.0391202975893,1073.4528629250692C1103.74532564825,1072.6019375338574 1106.73534610746,1070.7645649361154 1109.6836102069449,1069.369812707865L1115.0440903878266,1066.8338995655918L1116.9612060837055,1063.0760423579416L1118.8783217795844,1059.3181851502914L1123.222593677593,1057.6590925751457C1125.6119432214975,1056.7465916588153 1128.2391930115587,1055.9999999999998 1129.060926544395,1056.0C1129.8826600772315,1056.0000000000002 1131.5551153227211,1055.299483214108 1132.7774937565941,1054.443296031351L1134.9999999999998,1052.886592062702L1135.0,1050.143296031351C1135.0,1046.912521918578 1136.6254419785337,1045.0 1139.3712593284158,1045.0C1140.4554519590447,1045.0 1142.0765059958728,1044.33575058742 1142.9736016324782,1043.523890194267C1144.6890289699395,1041.9714497901575 1147.634123191904,1041.1981008361947 1152.302177222086,1041.0743101026078L1155.1043544441718,1041.0L1162.5583331025625,1033.9447875489905C1166.6580213646773,1030.064420700935 1170.4595416147388,1027.1659783484038 1171.0061558804764,1027.5038045433653C1172.480493898788,1028.4149955495877 1172.2112702186635,1031.7479274794637 1170.4456632362003,1034.4425843331105L1168.8913264724013,1036.814802077517L1169.8281259669486,1037.393776005791C1170.3433656889497,1037.7122116663418 1171.954868379768,1037.0367406981404 1173.4092430576559,1035.8927294097884C1174.8636177355438,1034.7487181214362 1177.2790095067073,1033.492370230971 1178.776780326908,1033.1008452087544C1180.2745511471085,1032.709320186538 1181.9442078113784,1031.4014606872977 1182.48712846973,1030.1944907659986C1183.6483885348225,1027.612887086321 1184.597184742466,1027.454327599682 1186.64285714286,1029.5C1187.4678571428908,1030.325 1189.4607142857597,1031.0 1191.071428571458,1031.0L1194.0,1031.0L1194.0,1029.6743140267095C1193.9999999999998,1028.9451867413998 1192.8749999999998,1027.2917454293806 1191.4999999999998,1026.0L1188.9999999999998,1023.651371946581L1188.9999999999998,1020.7851934658345C1188.9999999999998,1019.208795301424 1188.0346219355572,1016.6132712748367 1186.8547154123494,1015.0173622956405L1184.709430824699,1012.1157096061929L1186.0372644761346,1008.8078548030965C1186.767572984424,1006.9885346613934 1188.182951048867,1004.4268135886867 1189.1825490637852,1003.1151413081927C1190.1821470787033,1001.8034690276986 1191.0000000000002,999.9216114224859 1191.0,998.933235518831C1191.0,997.944859615176 1192.4625,996.116199650981 1194.25,994.8695467095087C1196.0375,993.6228937680363 1200.3484405137071,990.018953323282 1203.8298678082383,986.86079016561C1207.3112951027692,983.702627007938 1212.0362951027691,980.1541984495815 1214.3298678082383,978.9753933692621C1216.6234405137072,977.7965882889428 1220.3,975.0960268348853 1222.5,972.9741456935787C1224.7,970.8522645522721 1227.7211194661684,968.6574052351782 1229.2135988137074,968.096680544481L1231.9271976274147,967.0771811068498L1234.5839531481101,961.8343264364221C1240.2390351332779,950.6745592818476 1247.4213625107127,944.7460805176579 1259.7256778229216,941.0816966832851L1266.62641151038,939.0265691667995L1268.698270724221,936.7632845833998C1269.8377932918336,935.5184780625299 1271.055500551722,933.5557906238561 1271.4042868573065,932.4017569419024C1271.7530731628913,931.2477232599487 1273.1547939268273,929.794870715966 1274.5192218882758,929.1731957330521C1275.8836498497242,928.5515207501383 1277.0000000000002,927.6313750881544 1277.0000000000002,927.1284275953104C1277.0000000000002,926.6254801024664 1277.6750000000002,925.9549558048108 1278.5,925.63837360052L1280.0,925.0627695927187L1280.0,1316.0313847963594L1280.0,1707.0L640.0,1707.0L0.0,1707.0L-1.56423842188025e-14,1320.567387670557"/></svg>