<svg version="1.1" xmlns="http://www.w3.org/2000/svg" xmlns:xlink="http://www.w3.org/1999/xlink" width="640" height="360" viewBox="0 0 640 360"><path stroke="none" fill="000000" fill-rule="nonzero" d="M0.0,276.0L0.0,192.0L5.89958944482695,192.0L11.7991788896539,191.99999999999997L17.122677614804573,188.0L22.446176339955244,184.0L24.841073161592874,184.0L27.2359699832305,184.0L30.652781219921252,187.0L34.069592456612,190.0L36.92084345453851,190.00000000000006L39.77209445246502,190.0000000000001L45.762141731452786,194.0000000000001C49.05666773489607,196.2000000000001 52.338497398851715,198.00000000000009 53.05509654024313,198.00000000000006C53.77169568163454,198.0 55.830318829401875,198.53239592444692 57.62981464639277,199.1831020543265L60.90162522273984,200.36620410865302L66.20081261136991,199.0982742242416C69.11536567511646,198.40091278781534 74.35519647663753,197.45684691826247 77.84488105919452,197.00035006967966L84.18976211838904,196.17035579952912L86.34488105919452,194.23419025124252C87.53019647663753,193.16929919968487 89.175,192.0012565645434 90.0,191.63853995092813C90.825,191.2758233373129 94.65,188.9675443371479 98.5,186.5090310616726C106.390229370504,181.4705288138988 119.28074756314001,175.0 121.42816839968773,175.0C122.20901151628176,175.00000000000003 123.89460944677685,176.38468082692123 125.17394157856572,178.07706850426933C126.45327371035458,179.76945618161747 128.5325113434383,182.28492207051062 129.7944696520851,183.66699270180968L132.0889393041702,186.17984839508068L133.7944696520851,185.4484949340084C134.7325113434383,185.04625053041863 136.75276278139685,184.50246982931415 138.283917291993,184.24009337599844L141.06783458398598,183.76304527906078L144.58205501617766,187.38152263953037L148.09627544836934,190.99999999999997L150.59779765106887,191.0C151.9736348625536,191.00000000000003 154.3144728866705,190.3851417390839 155.7996599268842,189.63364830907534C157.2848469670979,188.88215487906677 160.115530943179,187.97526547911593 162.09006876262004,187.61833853140683L165.68013752524007,186.96938044466305L168.09006876262004,184.40180671863368L170.5,181.83423299260429L175.5,182.38937771398184C178.25,182.69470731073952 186.125,183.0017653987249 193.0,183.07172902061603L205.5,183.19893560587263L209.750122627,182.09440258441077L214.00024525400002,180.98986956294888L218.5120199215803,183.11065399329664L223.02379458916056,185.2314384236444L227.76189729458028,184.08637289037665C230.36785378256113,183.45658684707936 236.4448322813226,181.7338874150227 241.2662939584946,180.2581519302507L250.03258791698923,177.57499650339253L257.7662939584946,171.14747354789466C262.0198322813226,167.61233592237085 265.8598605511069,164.10796170910754 266.29969011357093,163.35997529619843C266.739519676035,162.6119888832893 268.1317041895004,162.00000000000003 269.39343347682734,162.0L271.6874867265128,161.99999999999997L283.0937433632564,172.55670046158076C295.1399408799816,183.70567798637646 297.14992195513423,184.99999999999991 302.41721644138204,185.0L305.70423356041516,185.00000000000003L309.10211678020755,182.54014058353238C310.97095255109343,181.18721790447515 314.3,179.09728955816936 316.5,177.8958553695195C318.7,176.69442118086965 321.8924758949405,174.65135791828013 323.59439087764554,173.3557147859872C325.2963058603506,172.06007165369428 327.3213058603506,170.99831787280309 328.09439087764554,170.9962619395623C328.8674758949405,170.9942060063215 331.04825519648574,170.04866945308453 332.9405671033017,168.8950695990357L336.3811342066034,166.7976153189469L340.1866726414433,167.93778236670326L343.9922110762832,169.07794941445962L345.7461055381416,172.33011300638833C346.7107474921637,174.1188029819491 349.79666723568647,177.70126436369569 352.6037049681921,180.2911382991585L357.70740993638424,185.0L360.1666137634261,185.0L362.625817590468,185.0L365.4095866269557,182.09437122648634L368.19335566344336,179.1887424529727L372.4678886302007,178.11240264467222L376.742421596958,177.03606283637174L377.9627677890863,174.08988650854525C379.3976851846935,170.62568947118524 381.4079127777865,169.6127570180871 384.0459919089066,171.0246141226687L385.94709944933356,172.04205600144428L388.62030697569924,169.04183672923662C390.0905711152004,167.39171612952242 392.03035848303705,165.80775226234425 392.9309455708918,165.52191702439626C394.56057123958277,165.00469392953048 408.26397453119904,149.57914316864398 411.5527059455285,144.55990461016899L413.27806875748945,141.92666812408183L419.6245865014265,138.86579846675664L425.9711042453636,135.80492880943146L431.23555212268184,129.65768087467742C442.7319745561528,116.23341289669985 445.90069374918414,114.00000000000006 453.4503400731158,113.99999999999999L458.0,113.99999999999994L460.0,116.00000000000003C461.1,117.10000000000008 462.00000000000006,118.39744303436335 462.0000000000001,118.88320674302953C462.00000000000017,119.91875229451426 467.53051368273066,124.08562408966809 478.0,130.9381355520195L485.5,135.84705222760292L493.0,138.077588048587C497.125,139.30438275012824 502.8712378283089,141.81379599891758 505.76941739624203,143.65406193478555L511.03883479248407,147.0L513.7827657721921,147.0L516.5266967519,146.99999999999997L521.723898361597,150.49999999999997C524.5823592469303,152.42499999999998 527.5872948302841,153.99999999999997 528.401532991272,154.0C529.21577115226,154.0 530.1341783598406,154.4080881524019 530.4424378970068,154.90686256089305C530.7506974341729,155.40563696938423 536.0647550816416,157.94093592471495 542.2514548913816,160.54086023940576C556.696575238653,166.61133735555396 563.4204095704629,170.00062056484825 572.2644694021692,175.6695206319555L579.4138182956254,180.2521382524955L582.5279071127795,179.12606912624773C586.7093872425779,177.61402629360694 591.3629798381456,177.70699593994377 595.3735015126149,179.3826988899869L598.6827657634261,180.7653977799737L606.5913828817131,179.85288640187008C610.9411222967709,179.35100514391306 614.95,178.89199303903075 615.5,178.8328595021316C618.0116368842776,178.56281955236136 625.0931004851651,181.30730410275723 631.360891059597,184.9798896814748C635.1343811423752,187.19095035666362 638.6218811423752,188.99999999999994 639.110891059597,188.99999999999997L640.0,189.0L640.0,274.5L640.0,360.0L320.0,360.0L0.0,360.0L0.0,276.0"/></svg>